<?xml version="1.0" encoding="UTF-8" standalone="no"?>
<!-- Created with Inkscape (http://www.inkscape.org/) -->

<svg
   version="1.1"
   id="svg1"
   width="865.39398"
   height="1000"
   viewBox="0 0 865.39396 999.99997"
   sodipodi:docname="logoBm.svg"
   inkscape:version="1.4.2 (ebf0e940d0, 2025-05-08)"
   xmlns:inkscape="http://www.inkscape.org/namespaces/inkscape"
   xmlns:sodipodi="http://sodipodi.sourceforge.net/DTD/sodipodi-0.dtd"
   xmlns="http://www.w3.org/2000/svg"
   xmlns:svg="http://www.w3.org/2000/svg">
  <defs
     id="defs1">
    <clipPath
       clipPathUnits="userSpaceOnUse"
       id="clipPath2">
      <path
         d="M 0,1190.55 H 793.7 V 0 H 0 Z"
         transform="translate(-442.89651,-242.75881)"
         id="path2" />
    </clipPath>
    <clipPath
       clipPathUnits="userSpaceOnUse"
       id="clipPath4">
      <path
         d="M 0,1190.55 H 793.7 V 0 H 0 Z"
         transform="translate(-271.19821,-662.45122)"
         id="path4" />
    </clipPath>
    <clipPath
       clipPathUnits="userSpaceOnUse"
       id="clipPath6">
      <path
         d="M 0,1190.55 H 793.7 V 0 H 0 Z"
         transform="translate(-604.04692,-778.16062)"
         id="path6" />
    </clipPath>
    <clipPath
       clipPathUnits="userSpaceOnUse"
       id="clipPath8">
      <path
         d="M 0,1190.55 H 793.7 V 0 H 0 Z"
         transform="translate(-721.26952,-691.26902)"
         id="path8" />
    </clipPath>
    <clipPath
       clipPathUnits="userSpaceOnUse"
       id="clipPath10">
      <path
         d="M 0,1190.55 H 793.7 V 0 H 0 Z"
         transform="translate(-151.2739,-535.20211)"
         id="path10" />
    </clipPath>
    <clipPath
       clipPathUnits="userSpaceOnUse"
       id="clipPath12">
      <path
         d="M 0,1190.55 H 793.7 V 0 H 0 Z"
         transform="translate(-588.70312,-382.72748)"
         id="path12" />
    </clipPath>
    <clipPath
       clipPathUnits="userSpaceOnUse"
       id="clipPath14">
      <path
         d="M 0,1190.55 H 793.7 V 0 H 0 Z"
         transform="translate(-483.02931,-797.88772)"
         id="path14" />
    </clipPath>
    <clipPath
       clipPathUnits="userSpaceOnUse"
       id="clipPath16">
      <path
         d="M 0,1190.55 H 793.7 V 0 H 0 Z"
         transform="translate(-468.63481,-539.04202)"
         id="path16" />
    </clipPath>
    <clipPath
       clipPathUnits="userSpaceOnUse"
       id="clipPath18">
      <path
         d="M 0,1190.55 H 793.7 V 0 H 0 Z"
         transform="translate(-214.07521,-417.37299)"
         id="path18" />
    </clipPath>
    <clipPath
       clipPathUnits="userSpaceOnUse"
       id="clipPath20">
      <path
         d="M 0,1190.55 H 793.7 V 0 H 0 Z"
         transform="translate(-674.72462,-713.00292)"
         id="path20" />
    </clipPath>
    <clipPath
       clipPathUnits="userSpaceOnUse"
       id="clipPath22">
      <path
         d="M 0,1190.55 H 793.7 V 0 H 0 Z"
         transform="translate(-404.38091,-741.23682)"
         id="path22" />
    </clipPath>
    <clipPath
       clipPathUnits="userSpaceOnUse"
       id="clipPath24">
      <path
         d="M 0,1190.55 H 793.7 V 0 H 0 Z"
         transform="translate(-219.37651,-689.62211)"
         id="path24" />
    </clipPath>
    <clipPath
       clipPathUnits="userSpaceOnUse"
       id="clipPath26">
      <path
         d="M 0,1190.55 H 793.7 V 0 H 0 Z"
         transform="translate(-278.10691,-604.64162)"
         id="path26" />
    </clipPath>
    <clipPath
       clipPathUnits="userSpaceOnUse"
       id="clipPath28">
      <path
         d="M 0,1190.55 H 793.7 V 0 H 0 Z"
         transform="translate(-247.13821,-579.47662)"
         id="path28" />
    </clipPath>
    <clipPath
       clipPathUnits="userSpaceOnUse"
       id="clipPath30">
      <path
         d="M 0,1190.55 H 793.7 V 0 H 0 Z"
         transform="translate(-659.37302,-577.56641)"
         id="path30" />
    </clipPath>
    <clipPath
       clipPathUnits="userSpaceOnUse"
       id="clipPath32">
      <path
         d="M 0,1190.55 H 793.7 V 0 H 0 Z"
         transform="translate(-411.27251,-854.46782)"
         id="path32" />
    </clipPath>
    <clipPath
       clipPathUnits="userSpaceOnUse"
       id="clipPath34">
      <path
         d="M 0,1190.55 H 793.7 V 0 H 0 Z"
         transform="translate(-425.92191,-779.17632)"
         id="path34" />
    </clipPath>
    <clipPath
       clipPathUnits="userSpaceOnUse"
       id="clipPath36">
      <path
         d="M 0,1190.55 H 793.7 V 0 H 0 Z"
         transform="translate(-285.9985,-316.85641)"
         id="path36" />
    </clipPath>
    <clipPath
       clipPathUnits="userSpaceOnUse"
       id="clipPath38">
      <path
         d="M 0,1190.55 H 793.7 V 0 H 0 Z"
         transform="translate(-578.53121,-638.27152)"
         id="path38" />
    </clipPath>
    <clipPath
       clipPathUnits="userSpaceOnUse"
       id="clipPath40">
      <path
         d="M 0,1190.55 H 793.7 V 0 H 0 Z"
         transform="translate(-351.09421,-365.51168)"
         id="path40" />
    </clipPath>
    <clipPath
       clipPathUnits="userSpaceOnUse"
       id="clipPath42">
      <path
         d="M 0,1190.55 H 793.7 V 0 H 0 Z"
         transform="translate(-547.57132,-809.20212)"
         id="path42" />
    </clipPath>
    <clipPath
       clipPathUnits="userSpaceOnUse"
       id="clipPath44">
      <path
         d="M 0,1190.55 H 793.7 V 0 H 0 Z"
         transform="translate(-322.30911,-805.53912)"
         id="path44" />
    </clipPath>
    <clipPath
       clipPathUnits="userSpaceOnUse"
       id="clipPath46">
      <path
         d="M 0,1190.55 H 793.7 V 0 H 0 Z"
         transform="translate(-420.02051,-1018.3291)"
         id="path46" />
    </clipPath>
    <clipPath
       clipPathUnits="userSpaceOnUse"
       id="clipPath48">
      <path
         d="M 0,1190.55 H 793.7 V 0 H 0 Z"
         transform="translate(-375.75441,-960.90143)"
         id="path48" />
    </clipPath>
    <clipPath
       clipPathUnits="userSpaceOnUse"
       id="clipPath50">
      <path
         d="M 0,1190.55 H 793.7 V 0 H 0 Z"
         transform="translate(-375.46581,-808.66552)"
         id="path50" />
    </clipPath>
    <clipPath
       clipPathUnits="userSpaceOnUse"
       id="clipPath52">
      <path
         d="M 0,1190.55 H 793.7 V 0 H 0 Z"
         transform="translate(-484.21191,-808.73832)"
         id="path52" />
    </clipPath>
    <clipPath
       clipPathUnits="userSpaceOnUse"
       id="clipPath54">
      <path
         d="M 0,1190.55 H 793.7 V 0 H 0 Z"
         transform="translate(-200.62501,-388.09958)"
         id="path54" />
    </clipPath>
    <clipPath
       clipPathUnits="userSpaceOnUse"
       id="clipPath56">
      <path
         d="M 0,1190.55 H 793.7 V 0 H 0 Z"
         transform="translate(-345.33691,-479.39841)"
         id="path56" />
    </clipPath>
    <clipPath
       clipPathUnits="userSpaceOnUse"
       id="clipPath58">
      <path
         d="M 0,1190.55 H 793.7 V 0 H 0 Z"
         transform="translate(-190.5981,-403.00389)"
         id="path58" />
    </clipPath>
    <clipPath
       clipPathUnits="userSpaceOnUse"
       id="clipPath60">
      <path
         d="M 0,1190.55 H 793.7 V 0 H 0 Z"
         transform="translate(-275.2441,-409.36134)"
         id="path60" />
    </clipPath>
    <clipPath
       clipPathUnits="userSpaceOnUse"
       id="clipPath62">
      <path
         d="M 0,1190.55 H 793.7 V 0 H 0 Z"
         transform="translate(-459.27251,-565.62011)"
         id="path62" />
    </clipPath>
    <clipPath
       clipPathUnits="userSpaceOnUse"
       id="clipPath64">
      <path
         d="M 0,1190.55 H 793.7 V 0 H 0 Z"
         transform="translate(-351.09421,-365.51168)"
         id="path64" />
    </clipPath>
    <clipPath
       clipPathUnits="userSpaceOnUse"
       id="clipPath68">
      <path
         d="M 0,1190.55 H 793.7 V 0 H 0 Z"
         transform="translate(-384.77391,-924.16802)"
         id="path68" />
    </clipPath>
    <clipPath
       clipPathUnits="userSpaceOnUse"
       id="clipPath70">
      <path
         d="M 0,1190.55 H 793.7 V 0 H 0 Z"
         transform="translate(-423.89061,-858.99272)"
         id="path70" />
    </clipPath>
    <clipPath
       clipPathUnits="userSpaceOnUse"
       id="clipPath72">
      <path
         d="M 0,1190.55 H 793.7 V 0 H 0 Z"
         transform="translate(-411.27251,-854.46782)"
         id="path72" />
    </clipPath>
    <clipPath
       clipPathUnits="userSpaceOnUse"
       id="clipPath74">
      <path
         d="M 0,1190.55 H 793.7 V 0 H 0 Z"
         transform="translate(-65.636702,-492.61521)"
         id="path74" />
    </clipPath>
    <clipPath
       clipPathUnits="userSpaceOnUse"
       id="clipPath76">
      <path
         d="M 0,1190.55 H 793.7 V 0 H 0 Z"
         transform="translate(-90.5605,-496.42291)"
         id="path76" />
    </clipPath>
    <clipPath
       clipPathUnits="userSpaceOnUse"
       id="clipPath78">
      <path
         d="M 0,1190.55 H 793.7 V 0 H 0 Z"
         transform="translate(-617.57621,-304.79791)"
         id="path78" />
    </clipPath>
    <clipPath
       clipPathUnits="userSpaceOnUse"
       id="clipPath80">
      <path
         d="M 0,1190.55 H 793.7 V 0 H 0 Z"
         transform="translate(-214.07521,-417.37299)"
         id="path80" />
    </clipPath>
    <clipPath
       clipPathUnits="userSpaceOnUse"
       id="clipPath82">
      <path
         d="M 0,1190.55 H 793.7 V 0 H 0 Z"
         transform="translate(-468.63481,-539.04202)"
         id="path82" />
    </clipPath>
    <clipPath
       clipPathUnits="userSpaceOnUse"
       id="clipPath84">
      <path
         d="M 0,1190.55 H 793.7 V 0 H 0 Z"
         transform="translate(-356.48391,-921.72902)"
         id="path84" />
    </clipPath>
    <clipPath
       clipPathUnits="userSpaceOnUse"
       id="clipPath86">
      <path
         d="M 0,1190.55 H 793.7 V 0 H 0 Z"
         transform="translate(-599.98441,-617.64062)"
         id="path86" />
    </clipPath>
    <clipPath
       clipPathUnits="userSpaceOnUse"
       id="clipPath88">
      <path
         d="M 0,1190.55 H 793.7 V 0 H 0 Z"
         transform="translate(-620.61521,-619.00781)"
         id="path88" />
    </clipPath>
    <clipPath
       clipPathUnits="userSpaceOnUse"
       id="clipPath90">
      <path
         d="M 0,1190.55 H 793.7 V 0 H 0 Z"
         transform="translate(-80.940902,-494.83011)"
         id="path90" />
    </clipPath>
    <clipPath
       clipPathUnits="userSpaceOnUse"
       id="clipPath92">
      <path
         d="M 0,1190.55 H 793.7 V 0 H 0 Z"
         transform="translate(-171.6724,-342.18848)"
         id="path92" />
    </clipPath>
    <clipPath
       clipPathUnits="userSpaceOnUse"
       id="clipPath94">
      <path
         d="M 0,1190.55 H 793.7 V 0 H 0 Z"
         transform="translate(-243.31591,-240.21391)"
         id="path94" />
    </clipPath>
    <clipPath
       clipPathUnits="userSpaceOnUse"
       id="clipPath96">
      <path
         d="M 0,1190.55 H 793.7 V 0 H 0 Z"
         transform="translate(-144.80571,-396.55373)"
         id="path96" />
    </clipPath>
    <clipPath
       clipPathUnits="userSpaceOnUse"
       id="clipPath98">
      <path
         d="M 0,1190.55 H 793.7 V 0 H 0 Z"
         transform="translate(-354.80421,-250.92968)"
         id="path98" />
    </clipPath>
    <clipPath
       clipPathUnits="userSpaceOnUse"
       id="clipPath100">
      <path
         d="M 0,1190.55 H 793.7 V 0 H 0 Z"
         transform="translate(-680.63962,-391.20308)"
         id="path100" />
    </clipPath>
    <clipPath
       clipPathUnits="userSpaceOnUse"
       id="clipPath102">
      <path
         d="M 0,1190.55 H 793.7 V 0 H 0 Z"
         transform="translate(-473.21581,-249.07418)"
         id="path102" />
    </clipPath>
    <clipPath
       clipPathUnits="userSpaceOnUse"
       id="clipPath104">
      <path
         d="M 0,1190.55 H 793.7 V 0 H 0 Z"
         transform="translate(-540.27832,-261.70898)"
         id="path104" />
    </clipPath>
    <clipPath
       clipPathUnits="userSpaceOnUse"
       id="clipPath106">
      <path
         d="M 0,1190.55 H 793.7 V 0 H 0 Z"
         transform="translate(-735.32622,-520.80271)"
         id="path106" />
    </clipPath>
    <clipPath
       clipPathUnits="userSpaceOnUse"
       id="clipPath108">
      <path
         d="M 0,1190.55 H 793.7 V 0 H 0 Z"
         transform="translate(-600.56152,-315.90428)"
         id="path108" />
    </clipPath>
    <clipPath
       clipPathUnits="userSpaceOnUse"
       id="clipPath110">
      <path
         d="M 0,1190.55 H 793.7 V 0 H 0 Z"
         transform="translate(-664.04201,-443.24021)"
         id="path110" />
    </clipPath>
  </defs>
  <sodipodi:namedview
     id="namedview1"
     pagecolor="#ffffff"
     bordercolor="#000000"
     borderopacity="0.25"
     inkscape:showpageshadow="2"
     inkscape:pageopacity="0.0"
     inkscape:pagecheckerboard="0"
     inkscape:deskcolor="#d1d1d1"
     inkscape:zoom="0.30451283"
     inkscape:cx="564.83664"
     inkscape:cy="699.47793"
     inkscape:window-width="1920"
     inkscape:window-height="1011"
     inkscape:window-x="0"
     inkscape:window-y="0"
     inkscape:window-maximized="1"
     inkscape:current-layer="layer-MC0">
    <inkscape:page
       x="0"
       y="0"
       inkscape:label="1"
       id="page1"
       width="865.39398"
       height="1000"
       margin="214.93201 22.166553 214.93333 28.270533"
       bleed="0" />
  </sodipodi:namedview>
  <g
     id="layer-MC0"
     inkscape:groupmode="layer"
     inkscape:label="Layer 1"
     transform="translate(-374.40567,-616.41721)">
    <g
       id="g110"
       transform="matrix(0.86390379,0,0,0.86390379,349.98183,430.73675)">
      <path
         id="path1"
         d="m 0,0 c -0.017,-2.495 2.022,-10.884 2.695,-13.45 4.502,0.615 9.785,2.007 14.241,2.934 15.975,3.431 8.108,2.07 11.778,5.238 1.015,-0.417 0.887,-0.711 1.399,-3.023 0.503,-2.662 2.655,-9.708 1.807,-11.305 -4.631,0.782 3.206,3.31 -13.146,0 -2.791,-0.593 -12.233,-2.065 -13.946,-2.968 l 2.871,-15.385 c 1.408,0 32,6.03 36.51,7.478 3.414,0.999 1.224,2.046 3.055,3.406 0.927,-0.256 0.864,0.191 1.47,-2.935 0.256,-1.353 0.602,-2.783 0.857,-4.07 0.239,-1.145 0.503,-2.271 0.856,-3.623 l 0.449,-3.015 c -0.29,-1.191 0.23,-0.12 -0.443,-0.982 -2.525,0.472 -0.623,2.734 -5.915,1.614 L 1.847,-49.098 c -1.847,-0.397 -5.99,-1.638 -7.222,-1.023 0.176,1.808 1.137,1.224 1.664,2.583 0.601,1.479 -1.488,9.412 -1.869,11.267 L -13.137,0.23 c -1.288,6.19 -2.023,2.743 -3.928,5.007 0.425,1.071 0,0.566 1.007,1.071 0.121,0 1.592,0.318 1.738,0.318 1.183,0.217 2.437,0.48 3.678,0.697 l 42.089,8.883 c 5.877,1.186 2.712,2.553 4.878,4.054 1.446,-0.511 1.543,-3.549 2.153,-6.876 0.485,-2.327 1.325,-5.342 1.438,-7.661 -4.51,-0.31 2.127,3.063 -9.597,0.592 z M -110,10.241 -88.092,8.21 c -0.015,-2.688 0.12,-0.761 -1.223,-2.119 -1.768,-1.727 -0.248,-3.62 1.16,-6.988 l 11.505,-27.315 19.086,28.764 c 1.728,3.285 -0.6,2.542 -1.135,4.685 1.632,0.854 21.157,-1.584 21.718,-2.04 -0.704,-2.351 -2.462,0.159 -3.119,-4.764 -0.351,-2.441 -0.518,-5.2 -0.68,-7.719 l -3.51,-38.901 c -0.433,-5.539 2.414,-2.716 2.143,-5.81 -2.463,-0.179 -16.84,0.991 -17.911,1.902 0.736,1.869 1.935,1.063 2.782,2.655 0.721,1.503 3.35,35.238 3.302,36.317 -8.291,-10.985 -17.262,-25.651 -25.755,-37.237 l -16.919,39.397 c 0,0.079 -0.12,0.206 -0.144,0.264 -0.544,0.831 -0.032,0.183 -0.768,0.831 -0.735,-6.47 -1.183,-13.521 -1.807,-20.095 l -1.215,-15.215 c 0.527,-2.632 2.015,-1.015 2.287,-3.31 -1.135,-0.743 -15.465,0.886 -16.039,1.175 -0.721,0.222 -0.416,0.046 -0.833,0.51 0.833,2.407 2.776,-0.183 3.279,4.727 0.287,2.646 0.471,5.108 0.663,7.77 l 3.383,37.959 c 0.592,6.588 -1.759,2.973 -2.158,6.588 m -89.581,-12.786 3.823,6.533 -11.826,7.365 c -3.294,1.696 -2.975,-0.975 -5.014,-0.217 -0.4,1.488 3.935,7.318 4.758,8.836 0.863,1.479 0.863,2.207 2.375,2.671 1.087,-1.87 -0.688,-2.142 1.319,-3.884 l 20.582,-12.523 c 3.183,-1.905 2.67,-1.182 3.078,-2.583 -2.271,-1.408 -2.79,0.576 -4.566,-2.424 l -5.477,-9.099 c -1.751,-2.887 -0.112,-2.725 0.279,-5.157 -6.179,-0.983 -17.59,1.584 -22.875,3.456 -19.351,6.629 -36.415,25.442 -24.26,46.925 6.244,10.86 18.382,18.834 35.694,13.451 8.852,-2.718 18.039,-9.171 23.157,-15.967 1.015,-1.351 1.87,-2.512 2.886,-3.703 2.079,-2.487 2.911,-1.007 4.429,-2.487 -0.479,-1.238 0.401,-0.143 -1.119,-1.35 l -4.877,-3.198 c -1.728,-1.178 -5.085,-3.84 -6.926,-3.983 -0.247,3.014 1.44,4.924 -5.036,11.691 -23.821,24.931 -51.167,-4.711 -34.511,-23.637 3.646,-4.142 15.288,-11.564 24.107,-10.716 M 97.382,18.95 c 9.253,-3.367 21.149,-8.709 30.858,-12.642 1.671,-0.728 3.398,-1.496 5.212,-2.079 1.76,-0.576 5.254,-0.392 6.382,-1.032 -0.681,-1.495 -8.245,-4.948 -9.717,-5.742 l -8.995,-4.685 c -2.692,-0.878 -0.485,1.312 -0.447,3.222 -3.661,2.169 -9.522,4.238 -13.922,6.149 -3.429,1.512 -11.072,5.149 -14.216,5.901 -5.212,-13.513 -6.42,-6.299 1.343,-21.229 3.887,-7.589 4.605,-2.44 5.662,-4.822 0.577,-1.406 -10.307,-6.157 -11.627,-6.923 -7.131,-3.95 -3.423,0.096 -3.503,1.886 C 84.398,-21.621 73.57,-1.68 72.764,0 L 62.607,19.411 c -3.253,6.16 -2.934,2.257 -5.572,4.414 0.728,1.401 1.025,1.002 3.574,2.394 1.454,0.878 2.671,1.405 4.197,2.286 1.696,0.879 6.925,4.428 8.279,3.821 0.845,-2.254 -2.528,-1.414 -0.154,-5.83 l 9.045,-16.414 c 0.87,1.078 12.17,27.539 12.409,29.296 0.263,2.744 -1.998,1.169 -3.432,2.231 0.649,1.617 15.235,8.509 18.169,10.099 0.799,0.537 1.815,1.32 2.876,0.889 0.185,-0.593 -2.308,-4.406 -3.653,-7.845 C 106.443,39.699 98.055,21.451 97.382,18.95 m 115.646,49.062 c 0.193,-1.463 -5.901,-6.453 -7.155,-7.707 -2.015,-1.848 -6.404,-7.085 -8.108,-7.14 -0.585,1.622 0.351,1.351 0.183,3.909 -2.662,1.96 -10.985,4.965 -11.786,4.861 -1.798,-1.087 -2.926,-2.901 -4.564,-4.372 L 167.571,44.024 c 0.184,-2.711 2.934,-9.842 4.246,-11.539 l 4.287,0.025 c -0.538,-1.422 -12.868,-13.066 -12.897,-13.099 -0.418,-0.205 -0.256,-0.167 -0.514,-0.167 -1.543,-0.167 -0.67,1.016 -0.527,1.601 0.256,0.711 0.447,0.935 0.527,1.734 0,1.521 -14.191,44.547 -16,49.759 -1.63,4.852 -1.589,3.967 -5.98,4.476 -0.335,1.81 0.241,1.568 2.959,4.121 1.349,1.12 2.47,2.19 3.799,3.494 2.495,2.446 5.004,5.22 7.499,7.019 2.08,-2.287 -2.375,-3.67 3.095,-5.677 2.655,-1.007 5.004,-1.797 7.659,-2.822 5.311,-1.934 10.339,-3.727 15.713,-5.742 l 23.093,-8.354 c 7.642,-2.713 6.253,-0.042 8.498,-0.841 m -479.583,40.22 c -3.542,-1.814 -3.781,3.934 -4.669,-8.802 -0.28,-4.28 -0.616,-8.806 -0.857,-13.116 -0.646,-7.778 -2.038,-19.501 -1.726,-26.866 1.559,0.986 1.895,1.647 3.375,2.935 l 21.676,19.543 c 2.319,2.174 0.6,2.759 1.128,4.949 2.303,-0.297 6.573,-6.533 9.06,-9.141 0.839,-0.749 1.015,-0.92 1.63,-1.588 0.393,-0.448 0.56,-0.536 0.64,-0.992 0.824,-2.119 -1.719,-0.192 -3.821,-1.002 l -8.149,-7.268 c -3.366,-3.077 -7.196,-6.541 -10.818,-9.793 l -18.631,-16.937 c -1.064,-1.512 0.119,-2.703 -0.529,-3.999 -1.278,-0.183 -2.158,1.746 -3.166,2.737 -1.254,1.462 -2.102,2.19 -3.222,3.607 -1.463,1.756 -5.413,5.412 -6.093,7.002 3.831,2.168 3.566,-4.117 4.519,9.332 0.838,11.721 2.55,30.775 2.694,41.044 -1.631,-0.864 -13.114,-11.451 -14.961,-13.041 -2.59,-2.319 -4.638,-4.392 -7.212,-6.582 -8.044,-6.837 -3.622,-4.836 -4.895,-8.404 -1.494,0.338 -0.806,0.065 -1.814,1.161 l -7.197,8.13 c -1.118,1.303 -2.606,2.248 -2.493,3.376 1.694,0.848 2.646,-1.345 4.98,1.032 l 36.183,32.573 c 2.63,2.553 -1.024,4.496 1.35,4.535 0.792,0.063 8.916,-9.308 9.964,-10.579 1.127,-1.246 2.719,-2.143 3.054,-3.846 m 481.51,69.446 c 2.016,-5.204 -2.486,-1.639 10.253,-8.965 l 34.758,-19.582 c 2.975,-0.903 1.438,0.727 4.309,0.785 -0.28,-1.688 -6.131,-11.899 -7.77,-14.633 -0.681,-1.216 -0.33,-1.216 -1.392,-1.367 -2.511,3.223 2.621,4.397 -11.035,0.832 -12.562,-3.272 -26.77,-6.541 -38.812,-10.011 1.735,-1.599 6.149,-3.615 8.29,-4.91 2.975,-1.76 5.838,-3.31 8.789,-4.932 l 12.882,-7.334 c 4.179,-2.166 2.709,1.344 5.173,-0.114 0.511,-0.623 -6.03,-11.519 -6.862,-13.062 -0.807,-1.466 -0.359,-1.195 -1.806,-1.466 -1.521,3.849 0.999,2.871 -3.958,5.559 -2.278,1.294 -4.309,2.34 -6.469,3.703 l -34.8,19.405 c -2.943,0.544 -2.141,-1.567 -3.867,-0.392 l -0.083,0.392 c 0,0 0,0.151 0.083,0.151 v 0.24 l 6.804,12.09 c 0.703,1.216 1.351,3.414 2.814,3.958 2.695,-2.989 -2.735,-4.726 10.716,-1.334 l 37.563,9.794 c -0.113,0.113 -0.264,0.409 -0.264,0.247 0,0 0.264,0.258 -2.528,1.759 l -27.857,15.361 c -4.013,0.576 -7.228,-6.981 2.64,11.435 0.799,1.534 0.736,2.286 2.429,2.391 m -513.046,-23.883 c 1.463,0.046 0.719,0.999 2.495,-3.056 1.183,-2.632 5.645,-10.515 5.117,-11.866 -2.055,-0.672 -1.351,1.567 -4.534,0.736 l -30.655,-14.704 c -15.561,-6.967 -23.525,1.685 -30.706,16.375 -2.767,5.614 -5.86,12.8 -5.485,20.326 0.472,8.306 5.245,11.674 10.954,14.729 l 30.449,14.751 c 3.95,1.831 1.063,2.583 2.854,4.205 1.168,0.083 0.496,0.288 1.225,-1.07 l 6.955,-15.303 c -3.502,-0.296 -0.767,3.006 -7.084,-0.184 l -20.205,-9.637 c -3.975,-1.83 -10.372,-4.532 -12.179,-7.636 -4.502,-7.779 2.975,-23.636 10.907,-26.378 4.733,-1.601 11.331,2.094 14.833,3.846 l 23.404,11.314 c 1.935,1.471 0.631,1.727 1.655,3.552 m 519.237,46.8 c 0,1.463 2.766,10.194 3.532,12.906 0.818,2.772 0.593,3.596 1.88,4.276 3.695,-2.813 -5.358,-1.182 11.929,-6.374 4.719,-1.405 9.404,-2.692 14.034,-4.067 4.686,-1.354 9.355,-2.792 14.074,-4.142 19.406,-5.638 8.539,-1.647 14.745,-1.488 l -4.592,-16.384 c -0.64,-1.136 0.321,-0.2 -0.911,-0.936 -1.911,1.153 -0.176,1.471 -1.598,2.984 -0.823,0.782 -8.899,2.862 -10.411,3.34 L 227.9,201.267 c -6.253,1.927 -3.95,-1.112 -6.754,-0.672 m -610.144,62.912 c 2.888,-0.505 0.512,-2.671 6.757,-1.655 l 43.835,7.403 c 6.955,1.128 2.518,1.968 5.517,3.472 l 7.493,-42.244 c 0.71,-8.923 -1.593,-14.21 -7.493,-17.262 -2.999,-1.496 -6.989,-2.207 -10.587,-1.345 -1.736,0.426 -2.887,1.057 -4.054,2.015 -1.471,0.999 -2.079,2.352 -3.678,3.206 -3.095,-15.591 -25.372,-15.83 -30.29,0.441 -1.983,6.709 -3.086,15.608 -4.284,22.821 l -3.599,21.405 c 0,0.864 -0.056,-0.121 0.071,0.727 0.105,0.961 -0.071,0.401 0.312,1.016 m 681.452,14.537 c -1.241,0.447 -0.928,1.128 -1.529,2.327 -2.78,-0.138 -10.784,-6.574 -13.354,-8.317 -1.966,-1.392 -11.64,-7.7 -12.551,-9.162 1.223,-1.913 2.582,-3.519 3.941,-5.575 3.373,-4.853 2.926,-3.286 15.192,-4.301 1.359,-0.151 3.127,-0.393 4.326,0.112 2.111,1.088 0.072,1.911 2.888,2.111 l -1.073,-17.919 c -2.342,0 -1.367,0.896 -2.671,2.295 -2.053,1.142 -23.971,2.103 -28.289,2.4 -4.734,0.376 -9.45,0.718 -14.185,1.029 -2.432,0.178 -4.878,0.434 -7.26,0.546 -4.869,0.135 -2.495,-2.113 -5.262,-2.273 -0.464,0.904 0.48,16.376 1.232,17.713 3.039,-0.53 0.214,-2.232 4.077,-2.904 l 19.798,-1.255 c -1.167,2.6 -17.847,25.972 -19.415,26.699 -2.541,-1.199 -0.43,-1.846 -2.821,-2.215 l 1.592,23.788 c 1.573,-0.577 1.271,-2.024 2.471,-3.75 l 18.469,-26.315 c 2.529,1.208 6.822,4.727 9.3,6.47 3.27,2.31 6.006,4.331 9.171,6.571 l 13.793,10.052 c 3.67,3.135 1.559,3.949 3.727,4.446 1.024,-1.457 -0.167,-9.796 -0.242,-11.539 -0.205,-2.478 -0.159,-9.802 -1.325,-11.034 M -242.391,121.977 c -0.336,0.776 -0.112,0.336 -0.783,1.176 l -2.207,2.694 c -23.701,27.387 -41.803,62.627 -51.583,97.879 -20.565,74.108 -4.278,153.308 32.824,208.889 7.388,11.114 19.59,27.042 28.834,36.556 2.742,2.775 4.349,4.222 6.485,6.42 9.331,9.813 3.918,3.096 9.667,16.104 12.073,27.427 27.778,61.378 57.195,72.949 6.037,2.454 12.29,5.269 18.574,7.292 22.278,6.972 32.041,2.518 42.771,9.356 7.061,4.397 -0.672,7.667 7.324,18.974 7.005,9.907 16.64,9.019 20.015,18.75 5.045,14.442 2.973,15.546 -2.502,30.25 -13.011,0.328 -45.995,-6.197 -59.339,-9.684 -56.141,-14.224 -103.452,-39.396 -146.631,-75.922 -3.182,-2.742 -5.79,-5.413 -9.019,-7.979 -1.752,-1.416 -2.895,-2.823 -4.502,-4.351 -15.945,-14.745 -30.81,-32.079 -43.882,-49.888 -42.116,-57.379 -67.294,-130.756 -67.927,-205.321 -0.886,-95.12 33.767,-179.566 94.849,-246.805 14.706,-16.213 28.17,-27.585 44.778,-40.851 28.058,-22.491 65.215,-42.265 99.438,-54.524 153.244,-54.477 321.798,0.705 413.378,126.208 31.942,43.795 51.524,88.446 62.728,142.459 7.85,37.844 9.234,86.9 2.303,125.72 l -9.628,-7.669 c -15.144,-12.072 -39.236,-22.805 -57.748,-29.905 -14.775,-5.748 -15.84,-4.381 -29.696,-3.829 0.079,-8.404 0.607,-16.614 0.231,-25.412 -0.294,-7.892 -1.03,-15.52 -1.95,-23.381 -4.655,-39.004 -20.926,-80.559 -42.564,-111.375 -4.707,-6.533 -16.238,-22.206 -22.579,-28.635 -4.622,-4.644 -8.109,-8.882 -12.835,-13.032 -2.319,-1.936 -4.381,-3.997 -6.755,-6.19 C 115.383,88.676 104.444,80.639 90.171,71.707 69.094,58.498 42.578,47.359 18.022,41.313 -27.603,30.072 -73.715,30.575 -118.173,43.481 c -33.735,9.739 -59.746,23.532 -85.525,42.833 -2.975,2.169 -3.718,3.975 -8.388,4.423 -3.99,0.417 -7.277,0.872 -11.195,1.454 -3.726,0.593 -18.838,2.471 -20.397,5.4 -1.663,2.821 -4.671,18.077 -3.782,21.341 1.255,1.526 3.438,2.061 5.069,3.045"
         style="fill:#ed1c24;fill-opacity:1;fill-rule:evenodd;stroke:none"
         transform="matrix(1.3333333,0,0,-1.3333333,590.52867,1263.7216)"
         clip-path="url(#clipPath2)" />
      <path
         id="path3"
         d="m 0,0 c 8.859,9.78 9.012,84.382 11.346,92.01 0.808,-2.791 1.279,-14.992 1.487,-18.942 L 16.144,35.109 C 16.64,30.001 16.52,21.316 21.421,20.325 23.02,21.55 31.617,34.774 33.807,38.06 l 2.959,4.263 c 0.751,1.032 0.416,0.68 1.271,1.408 C 37.661,33.879 30.881,21.044 27.41,13.002 25.316,8.204 23.293,3.645 21.149,-1.367 c -1.575,-3.632 -2.19,-3.27 -1.575,-7.757 3.375,-26.491 7.548,-56.618 10.011,-82.535 2.143,0.729 8.684,8.124 10.267,10.996 2.463,4.66 4.55,9.85 6.653,14.792 8.987,21.165 17.287,38.652 26.451,59.187 2.182,4.949 4.349,9.914 6.244,15.206 2.487,7.046 0.44,10.541 -1.671,17.321 C 62.808,72.228 50.982,95.48 21.214,129.84 c -1.808,2.03 -3.551,3.501 -5.006,5.468 -4.718,-0.895 -16.32,-8.674 -19.821,-11.331 -18.999,-14.471 -29.179,-31.967 -37.063,-56.25 -2.494,-7.829 -5.429,-15.473 -7.036,-23.996 -0.456,-2.287 -0.847,-5.015 -0.847,-7.381 0,-3.414 0.894,-3.206 3.101,-4.757 3.079,-2.111 5.902,-4.183 9.02,-6.278 C -33.423,23.188 -2.455,0.417 0,0"
         style="fill:#ffffff;fill-opacity:1;fill-rule:evenodd;stroke:none"
         transform="matrix(1.3333333,0,0,-1.3333333,361.5976,704.13173)"
         clip-path="url(#clipPath4)" />
      <path
         id="path5"
         d="M 0,0 5.742,-20.836 C 6.767,-28.561 6.868,-37.843 6.767,-45.905 6.604,-61.353 1.2,-79.982 5.413,-94.256 c 1.608,-5.764 6.198,-13.801 10.06,-16.071 5.869,-3.392 11.619,7.732 13.76,11.441 6.327,11.267 12.196,22.469 18.361,34.072 2.671,5.003 7.732,12.656 5.58,19.645 -0.782,2.64 -20.949,26.644 -23.131,29.394 -8.213,9.969 -14.745,19.277 -25.524,26.977 -4.815,3.392 -10.875,6.766 -17.008,9.253 -10.545,4.326 -11.865,0.719 -16.609,-5.71 -21.275,-29.098 -40.196,-70.598 -50.797,-107.123 -4.509,-15.537 -1.399,-19.654 4.157,-30.847 l 8.55,-17.608 c 1.317,-2.688 2.956,-7.412 5.434,-8.092 5.278,-1.504 9.397,6.11 14.266,12.011 l 35.35,43.41 C -4.718,-82.063 -4.31,-8.619 0,0"
         style="fill:#ffffff;fill-opacity:1;fill-rule:evenodd;stroke:none"
         transform="matrix(1.3333333,0,0,-1.3333333,805.39587,549.85253)"
         clip-path="url(#clipPath6)" />
      <path
         id="path7"
         d="m 0,0 c -0.497,2.19 -3.327,7.299 -4.447,9.22 -12.92,23.49 -19.452,34.637 -37.132,56.986 -4.231,5.262 -8.134,10.044 -12.259,14.378 -9.467,10.019 -16.288,17.751 -26.809,27.258 -32.777,29.801 -73.836,55.675 -116.871,71.459 -6.516,2.351 -13.417,4.799 -20.205,6.869 -3.886,1.192 -18.072,5.693 -21.454,5.582 -1.144,-2.271 -2.519,-7.508 -3.456,-10.355 -1.133,-3.647 -3.244,-7.444 0.154,-9.922 11.787,-8.46 25.426,-14.05 33.935,-27.82 2.638,-4.19 4.381,-10.123 8.962,-12.098 7.652,-3.381 16.112,-2.159 24.533,-3.038 7.939,-0.736 16.113,-2.151 23.411,-3.862 18.369,-4.197 26.771,-7.06 38.829,-16.592 19.992,-15.87 25.948,-25.571 41.387,-41.002 2.407,-2.408 4.502,-4.271 6.926,-6.821 l 7.268,-6.86 c 10.036,-9.019 19.255,-17.512 28.61,-26.301 3.837,-3.604 8.836,-9.393 13.584,-13.911 C -12.698,10.922 -2.224,0.744 0,0"
         style="fill:#ed1c24;fill-opacity:1;fill-rule:evenodd;stroke:none"
         transform="matrix(1.3333333,0,0,-1.3333333,961.69267,665.708)"
         clip-path="url(#clipPath8)" />
      <path
         id="path9"
         d="m 0,0 c 0,-42.395 10.411,-82.118 30.337,-118.211 0.92,-1.657 2.551,-5.31 4.134,-6.356 1.583,2.269 3.838,3.603 6.149,5.539 7.715,6.269 12.138,10.858 19.238,17.16 2.719,2.446 3.039,2.784 7.493,4.214 3.118,0.968 7.116,1.981 10.419,0.585 5.077,-2.207 12.249,-6.158 18.998,-5.032 -2.319,2.775 -14.113,11.092 -17.52,16.17 -1.478,2.286 -2.494,5.062 -4.165,7.612 -2.487,4.326 -16.024,18.733 -20.846,24.706 C 35.015,-29.815 33.663,-29.337 16.6,0 11.314,9.132 11.427,6.485 10.25,16.384 9.404,23.438 8.86,30.465 8.596,37.524 8.004,54.414 11.107,61.507 16.6,75.02 c 4.302,10.753 9.012,21.454 14.018,31.665 5.149,10.688 6.309,12.706 10.618,23.753 0.991,2.641 2.414,5.935 3.141,8.542 -2.294,-2.193 -6.98,-10.123 -9.13,-13.529 C 26.443,111.049 18.831,94.856 13.187,78.435 4.95,54.343 0,27.827 0,0"
         style="fill:#ffffff;fill-opacity:1;fill-rule:evenodd;stroke:none"
         transform="matrix(1.3333333,0,0,-1.3333333,201.69853,873.7972)"
         clip-path="url(#clipPath10)" />
      <path
         id="path11"
         d="m 0,0 c 1.664,1.312 4.773,5.981 6.357,8.021 6.085,8.122 11.482,16 16.672,25.403 13.849,25.33 23.716,53.931 27.946,83.389 1.965,13.195 4.126,39.924 1.735,52.855 -2.688,-1.863 -4.869,-4.751 -7.837,-6.725 -3.197,-2.064 -5.701,-3.694 -8.563,-5.942 -8.043,-6.148 -8.109,-9.355 -10.634,-18.888 C 23.699,130.567 17.663,125.298 13.834,120.444 10.7,116.629 11.202,115.998 6.566,113.159 -6.308,105.219 -6.494,97.8 -5.588,82.176 -5.078,73.082 -4.526,64.057 -3.911,54.892 -3.302,45.768 -2.758,36.342 -2.256,27.163 -2.022,25.14 -1.254,1.839 0,0"
         style="fill:#ffffff;fill-opacity:1;fill-rule:evenodd;stroke:none"
         transform="matrix(1.3333333,0,0,-1.3333333,784.93747,1077.0967)"
         clip-path="url(#clipPath12)" />
      <path
         id="path13"
         d="m 0,0 c -10.587,-1.824 -22.846,-7.749 -31.347,-13.362 -8.251,-5.558 -15.959,-15.193 -18.366,-26.09 -1.342,-6.294 -0.614,-22.022 -0.614,-29.378 -0.058,-9.843 -0.146,-19.615 -0.121,-29.417 0.121,-6.741 2.319,-12.922 9.074,-13.211 22.118,-0.919 20.943,-1.773 24.989,12.003 0.958,3.11 4.11,8.252 2.71,11.883 -1.655,4.03 -8.226,-2.168 -9.171,-3.008 -1.967,-1.614 -20.005,-17.806 -21.149,-13.735 -0.368,1.366 7.925,11.185 9.363,13.007 l 38.916,49.959 c 4.39,5.51 8.789,11.189 13.066,16.882 2.111,2.829 4.159,5.316 6.157,8.242 C 32.543,-2.775 8.674,1.447 0,0"
         style="fill:#ffffff;fill-opacity:1;fill-rule:evenodd;stroke:none"
         transform="matrix(1.3333333,0,0,-1.3333333,644.03907,523.54973)"
         clip-path="url(#clipPath14)" />
      <path
         id="path15"
         d="m 0,0 c 3.527,-5.742 14.24,-3.104 21.709,-1.551 -1.23,-2.849 -3.485,-6.014 -5.157,-8.246 -1.974,-2.695 -3.039,-5.077 -7.955,-4.748 -3.67,0.167 -7.669,0.895 -11.201,1.567 -3.097,0.64 -5.823,2.391 -7.022,5.196 -2.792,2.04 -3.039,3.67 -5.413,5.927 l 1.974,1.413 c 0.104,0.083 0.159,0.154 0.254,0.154 l 7.214,4.125 c 0.975,0.648 0.24,-0.343 1.079,0.999 C -2.862,3.494 -1.479,2.045 0,0 m -123.298,-59.644 c 1.919,0.552 42.522,29.283 47.08,32.769 7.486,5.556 36.198,24.715 40.549,28.961 2.382,2.248 2.11,3.791 3.845,6.189 2.863,-7.852 1.551,-9.156 9.124,-16.376 1.224,-1.207 3.541,-3.183 3.991,-4.341 -9.955,-0.536 -19.895,-6.725 -26.035,-11.21 -14.331,-10.291 -29.067,-20.327 -43.34,-31.042 l -20.229,-14.817 c -1.439,-1.238 -0.68,-0.168 -0.912,-1.367 0.688,-0.903 4.838,-4.351 5.933,-5.004 1.727,0.975 2.903,2.191 4.51,3.278 8.196,5.563 20.965,15.56 29.258,21.684 7.564,5.583 26.72,20.663 34.022,24.1 5.413,2.552 15.089,7.109 21.286,8.229 9.906,1.584 16.176,-2.808 25.195,-3.439 4.277,-0.327 4.798,0.585 9.012,5.574 5.526,6.429 19.908,19.67 14.24,26.546 C 32.233,10.09 22.094,6.571 19.647,5.731 15.665,4.372 9.045,0.832 5.229,3.214 1.463,5.572 -1.463,8.836 -3.862,13.2 c -1.271,2.286 -5.446,10.859 -5.5,13.378 l -1.057,2.224 c -0.335,0.837 -0.632,1.726 -0.782,2.542 -1.705,8.083 4.548,9.426 8.597,10.77 6.169,1.974 13.4,4.581 19.468,6.086 -0.518,2.303 -0.136,2.5 -4.869,3.845 -2.272,0.656 -4.517,0.983 -6.917,1.184 -13.826,1.199 -29.976,0.894 -35.406,-12.473 -3.231,-7.902 -3.231,-18.127 -6.612,-26.173 -2.775,-6.524 -10.612,-11.369 -16.736,-15.591 -6.686,-4.517 -74.643,-50.576 -76.706,-53.423 z"
         style="fill:#bdbcbc;fill-opacity:1;fill-rule:evenodd;stroke:none"
         transform="matrix(1.3333333,0,0,-1.3333333,624.8464,868.67733)"
         clip-path="url(#clipPath16)" />
      <path
         id="path17"
         d="m 0,0 c 0.696,1.082 1.759,2.056 2.646,3.063 6.765,7.862 10.147,6.708 18.335,1.057 2.487,-1.721 4.287,-3.879 6.149,-5.119 -0.504,-0.335 0,0 -0.719,-0.223 l -2.079,-1.24 c -1.848,-1.225 -1.551,-0.544 -3.599,-1.68 l -3.102,-1.295 c -0.135,-0.081 -0.488,-0.167 -0.639,-0.255 -1.344,-0.72 -0.409,0.655 -1.064,-0.863 -2.016,2.037 -2.871,4.669 -5.686,6.349 C 7.229,1.721 3.438,0.129 0,0 m -23.477,-14.369 c 4.838,-2.245 19.295,6.967 28.098,6.846 2.911,-0.055 3.83,-2.262 5.046,-4.101 3.798,-5.877 7.116,-11.452 8.004,-19.223 0.088,-4.718 -0.04,-9.069 -1.088,-13.491 -1.543,-6.22 -2.903,-6.22 -7.108,-7.523 -7.005,-2.095 -15.544,-4.277 -22.157,-6.725 0.471,-4.302 7.229,-6.053 11.443,-7.123 5.981,-1.617 27.201,-6.102 32.208,-3.591 8.284,4.231 9.747,17.343 12.505,24.619 2.798,7.406 5.645,11.946 10.275,17.671 l 9.163,9.339 c 1.527,1.696 3.526,2.816 4.662,4.622 -1.015,1.128 -5.414,4.669 -6.405,5.037 -1.48,-0.854 -6.157,-6.011 -8.131,-7.82 -5.19,-4.987 -4.567,-6.388 -6.853,-9.467 C 45,-13.76 42.003,-7.482 36.198,1.023 38.804,1.232 46.712,1.831 47.456,3.854 L 40.54,10.787 C 31.719,7.285 32.879,6.086 21.509,11.945 9.139,18.144 3.095,13.37 -5.293,5.751 c -3.814,-3.503 -8.276,-8.66 -12.899,-12.986 -3.166,-2.952 -5.524,-4.51 -5.285,-7.134"
         style="fill:#bdbcbc;fill-opacity:1;fill-rule:evenodd;stroke:none"
         transform="matrix(1.3333333,0,0,-1.3333333,285.4336,1030.9027)"
         clip-path="url(#clipPath18)" />
      <path
         id="path19"
         d="m 0,0 c -4.375,-1.713 -14.857,-14.435 -18.16,-18.958 -7.963,-10.892 -14.65,-23.173 -21.814,-34.424 -7.018,-10.843 -5.868,-11.561 7.335,-21.75 9.89,-7.549 13.28,-1.752 22.508,8.38 l 31.937,33.566 c 9.178,8.373 3.653,9.685 -1.84,16.281 L 6.453,-2.583 C 4.845,-0.977 3.67,1.477 0,0"
         style="fill:#ffffff;fill-opacity:1;fill-rule:evenodd;stroke:none"
         transform="matrix(1.3333333,0,0,-1.3333333,899.6328,636.72947)"
         clip-path="url(#clipPath20)" />
      <path
         id="path21"
         d="m 0,0 c -3.615,-2.641 -4.008,0.486 -9.037,7.29 l -15.496,21.366 c -2.143,2.16 -3.694,1.321 -6.069,3.19 -1.591,1.144 -3.629,3.016 -5.173,3.952 0.576,-1.943 2.246,-4.048 3.262,-5.918 1.231,-2.344 0.672,-4.831 2.014,-7.196 7.293,-12.251 13.906,-20.246 20.543,-35.574 3.91,-9.267 6.788,-17.479 9.882,-27.388 2.072,-6.492 4.446,-18.317 12.403,-14.767 2.534,1.078 2.935,3.54 2.863,6.933 -0.121,12.377 0,24.836 0,37.179 0,26.403 2.869,35.359 -19.495,55.35 -7.549,6.676 -16.32,8.819 -29.329,7.829 0.335,-1.153 8.331,-8.957 10.034,-10.996 8.66,-10.788 10.612,-11.249 17.391,-25.78 C -4.75,12.824 0.447,2.629 0,0"
         style="fill:#ffffff;fill-opacity:1;fill-rule:evenodd;stroke:none"
         transform="matrix(1.3333333,0,0,-1.3333333,539.17453,599.08427)"
         clip-path="url(#clipPath22)" />
      <path
         id="path23"
         d="m 0,0 c -5.149,-1.855 -6.261,-5.27 -7.796,-8.852 -7.996,-18.39 -10.962,-23.068 4.39,-32.776 6.884,-4.365 13.657,-8.548 20.75,-12.762 5.164,-3.109 21.293,-12.793 27.738,-13.847 3.102,-0.538 3.797,1.126 4.573,3.683 1.191,3.832 1.903,11.164 1.191,15.444 -0.6,3.669 -3.862,8.266 -5.805,10.754 -2.415,3.213 -5.677,5.701 -8.443,8.467 C 24.652,-17.559 24.508,-16.304 10.627,-5.75 6.029,-2.272 3.15,1.2 0,0"
         style="fill:#ffffff;fill-opacity:1;fill-rule:evenodd;stroke:none"
         transform="matrix(1.3333333,0,0,-1.3333333,292.502,667.90387)"
         clip-path="url(#clipPath24)" />
      <path
         id="path25"
         d="m 0,0 c -0.336,-0.45 0.04,0.335 -0.449,-0.849 -0.671,-1.638 -1.423,-5.804 -3.877,-11.372 -2.942,-6.867 -7.548,-15.711 -12.386,-20.819 -1.83,-1.952 -0.919,-3.606 0.416,-5.822 4.629,-7.933 13.433,-31.247 16.536,-41.162 1.671,-5.032 1.911,-7.933 4.645,-12.05 9.732,-14.698 12.29,3.094 11.843,9.673 -0.688,10.035 -1.639,20.296 -2.599,30.353 -0.783,9.763 -1.071,20.446 -3.663,29.411 C 8.339,-15.473 4.03,-4.943 0,0"
         style="fill:#ffffff;fill-opacity:1;fill-rule:evenodd;stroke:none"
         transform="matrix(1.3333333,0,0,-1.3333333,370.8092,781.2112)"
         clip-path="url(#clipPath26)" />
      <path
         id="path27"
         d="m 0,0 c 7.653,0.56 11.563,2.08 14.696,11.586 3.951,11.569 8.724,12.689 3.847,17.734 -2.679,2.776 -12.138,7.247 -16.744,9.534 -11.203,5.731 -23.531,13.065 -34.062,18.478 -5.751,2.926 -11.738,8.706 -17.64,2.19 -1.904,-2.143 -15.479,-29.496 -18.039,-34.454 -2.982,-5.783 -5.956,-11.619 -8.644,-17.583 -3.398,-7.54 -2.639,-12.739 -0.351,-21.893 1.639,-6.428 3.95,-14.16 6.74,-19.552 2.343,-4.556 41.052,-60.217 42.851,-62.127 4.87,-5.053 9.931,2.935 17.143,6.157 -0.863,-8.084 -4.965,-17.696 -2.311,-25.668 1.191,-3.455 5.413,-12.129 7.668,-14.506 l 35.711,-30.616 c 5.517,-4.549 10.587,-9.066 16.344,-13.585 8.539,-6.749 15.935,-15.519 23.116,-11.146 8.555,5.19 2.142,8.772 -1.296,12.05 -2.862,2.637 -12.05,11.77 -13.784,15.601 7.084,-1.311 20.277,-14.569 23.732,-16.224 3.166,-1.463 8.395,-1.057 10.267,1.534 4.925,6.741 -5.973,14.394 -8.013,16.505 -1.542,1.502 -2.127,2.069 -3.606,3.302 -1.207,0.983 -2.103,2.039 -3.365,3.085 -1.793,1.504 -5.766,3.966 -5.062,7.23 2.718,0.766 6.708,-2.135 8.771,-3.478 l 15.248,-10.716 c 2.152,-1.421 5.565,-4.74 9.172,-2.766 2.591,1.432 4.781,5.245 2.142,8.501 -0.911,1.19 -1.935,1.751 -3.262,3.156 -4.589,4.463 -13.609,10.749 -15.112,16.936 11.034,-0.862 16.232,-16.351 24.42,-15.887 4.397,0.137 9.187,5.63 9.979,9.884 1.638,8.067 -2.799,10.306 -6.188,13.521 -5.294,4.686 -16.56,12.945 -22.702,16.903 -8.675,5.717 -14.936,9.555 -26.731,12.818 -8.187,2.166 -26.77,4.005 -31.815,8.164 -3.455,2.83 -5.413,7.147 -6.734,13.057 -3.118,13.793 -9.914,31.281 -16.319,43.088 C 6.013,-21.63 -0.728,-10.713 0,0"
         style="fill:#e69d80;fill-opacity:1;fill-rule:evenodd;stroke:none"
         transform="matrix(1.3333333,0,0,-1.3333333,329.5176,814.76453)"
         clip-path="url(#clipPath28)" />
      <path
         id="path29"
         d="m 0,0 c 2.942,-15.962 -15.569,-28.627 17.751,-19.72 27.289,7.261 50.9,21.224 71.18,39.151 l 6.444,6.051 c 5.605,6.117 12.811,10.25 8.355,25.764 -1.15,3.997 -7.676,10.019 -10.817,13.393 -8.86,9.629 -21.926,22.236 -30.201,31.639 -0.975,1.033 -1.672,2.575 -3.654,2.383 -1.8,-0.055 -2.687,-1.598 -3.711,-2.487 C 39.578,82.038 25.505,70.043 8.979,56.521 4.372,52.756 0.343,49.031 -4.126,45.369 -15.569,35.878 -16.488,32.886 -31.777,23.699 -48.647,13.521 -62.522,10.219 -74.493,-7.047 c -6.443,-9.392 -13.367,-22.027 -11.281,-37.508 0.935,-7.051 2.925,-12.81 5.382,-18.88 8.937,-21.722 14.265,-14.799 21.685,-0.543 l 12.761,23.933 c 2.118,3.678 2.478,4.326 5.763,6.357 5.535,3.543 9.869,6.412 14.537,10.123 8.188,6.428 12.012,10.044 19.431,17.344 C -4.305,-4.39 -1.346,-0.697 0,0"
         style="fill:#e69d80;fill-opacity:1;fill-rule:evenodd;stroke:none"
         transform="matrix(1.3333333,0,0,-1.3333333,879.164,817.31147)"
         clip-path="url(#clipPath30)" />
      <path
         id="path31"
         d="m 0,0 c 4.134,2.078 11.147,0.878 16.223,0.847 2.368,0 6.524,0.336 8.613,-0.529 C 32.502,-2.8 16.519,-8.9 10.396,-8.053 5.86,-7.364 -0.153,-4.398 0,0 m 12.618,4.525 c -4.934,0 -16.729,-2.615 -16.919,5.038 5.564,5.764 33.342,4.565 35.59,1.191 C 32.752,8.563 29.817,6.763 28.234,6.069 23.628,3.917 17.936,4.525 12.618,4.525 M -26.499,69.7 c 0.671,2.55 4.989,3.735 3.823,7.068 -3.967,0 -8.508,-5.709 -11.611,-0.974 -3.486,5.476 19.55,16.606 35.885,8.378 C 12.53,78.52 4.23,70.235 -2.95,65.454 -14.058,57.874 -25.892,68.197 -26.499,69.7 m -15.56,15.513 c 0.512,-17.016 8.988,-53.982 14.712,-70.005 3.774,-10.547 9.099,-20.606 15.368,-26.651 6.525,-6.469 17.672,-12.682 31.625,-10.22 31.145,5.662 45.57,66.536 40.563,84.502 -1.981,7.045 -9.179,4.078 -14.281,2.272 -8.268,-3.047 -13.873,1.398 -18.606,0.343 -5.5,-7.804 8.891,-34.094 3.215,-38.725 -3.766,-3.053 -14.849,-3.302 -20.59,-2.862 -6.444,0.496 -17.207,5.349 -8.371,9.251 4.013,1.808 5.876,1.185 9.819,0.265 12.785,-3.319 6.18,12.97 5.316,25.051 -1.422,19.502 -2.11,23.893 14.169,27.026 1.91,0.424 3.31,0.537 4.126,1.999 -3.574,5.414 -31.712,6.174 -39.716,6.245 -11.218,0.192 -18.99,-1.304 -29.049,-5.124 -2.783,-1.001 -5.709,-2.416 -8.3,-3.367"
         style="fill:#e69d80;fill-opacity:1;fill-rule:evenodd;stroke:none"
         transform="matrix(1.3333333,0,0,-1.3333333,548.36333,448.1096)"
         clip-path="url(#clipPath32)" />
      <path
         id="path33"
         d="m 0,0 c 2.693,1.287 1.869,3.543 3.061,6.206 0.777,1.79 2.711,4.26 3.815,5.572 3.061,3.582 5.797,6.069 9.066,9.404 2.935,3.07 19.934,14.002 14.888,20.597 -7.18,9.507 -25.346,-20.277 -56.226,1.064 -13.114,9.011 -15.584,19.222 -16.84,20.397 -0.991,0.736 -2.27,0.529 -2.751,-0.455 -0.894,-1.735 0.4,-10.243 1.183,-12.458 4.383,-13.722 17.737,-20.997 26.3,-30.273 3.03,-3.198 5.797,-6.325 8.61,-9.978 C -7.197,7.979 -2.52,0.543 0,0"
         style="fill:#e69d80;fill-opacity:1;fill-rule:evenodd;stroke:none"
         transform="matrix(1.3333333,0,0,-1.3333333,567.89587,548.49827)"
         clip-path="url(#clipPath34)" />
      <path
         id="path35"
         d="m 0,0 c -0.775,5.484 -2.439,5.685 -2.679,16.376 -0.328,13.458 3.655,46.218 3.216,53.629 -4.326,-1.551 -8.932,-6.236 -11.691,-9.212 -6.773,-7.74 -9.291,-19.064 -13.011,-28.577 -1.03,-2.574 -1.901,-4.903 -3.269,-7.26 -1.487,-2.591 -3.406,-4.222 -4.286,-5.75 1.296,-1.406 5.685,-4.102 7.597,-5.351 C -16.184,8.748 -8.748,4.246 0,0"
         style="fill:#ffffff;fill-opacity:1;fill-rule:evenodd;stroke:none"
         transform="matrix(1.3333333,0,0,-1.3333333,381.33133,1164.9248)"
         clip-path="url(#clipPath36)" />
      <path
         id="path37"
         d="m 0,0 c -2.183,-1.087 -8.586,-8.701 -12.064,-11.77 l -11.468,-12.338 c -3.645,-5.63 0.752,-12.995 2.992,-18.032 2.478,-5.454 5.275,-11.075 7.557,-16.655 1.15,-2.726 1.726,-6.604 4.949,-6.75 3.9,-0.143 4.276,4.431 4.484,7.67 0.623,8.371 4.807,32.208 6.438,41.252 0.614,3.318 1.463,6.859 1.855,10.307 C 5.078,-3.039 4.199,2.254 0,0"
         style="fill:#ffffff;fill-opacity:1;fill-rule:evenodd;stroke:none"
         transform="matrix(1.3333333,0,0,-1.3333333,771.37493,736.37133)"
         clip-path="url(#clipPath38)" />
      <path
         id="path39"
         d="m 0,0 c 0.536,1.631 5.413,5.86 6.964,7.285 12.179,11.691 24.229,23.757 36.607,35.238 2.478,2.333 4.836,4.719 7.316,6.876 l 22.5,20.71 c 11.946,11.515 25.291,23.043 37.429,34.487 l 7.444,6.845 C 115.55,106.1 100.023,81.662 96.391,75.802 84.479,56.363 73.26,44.121 57.442,28.267 52.414,23.197 47.959,19.23 42.058,14.586 34.015,8.188 14.665,-3.47 0,0 m 166.605,214.533 c 2.062,3.541 4.781,7.197 7.027,10.633 14.026,21.078 12.226,20.296 5.35,36.104 -3.662,8.314 -7.269,15.673 -11.065,24.099 -2.289,4.902 -9.541,20.247 -10.859,23.996 L 10.282,306.502 c -4.685,-10.85 -10.066,-21.814 -15.04,-32.567 -5.029,-10.851 -9.954,-21.702 -15.04,-32.648 -5.117,-10.875 -9.979,-22.612 -15.192,-32.505 -2.799,-5.363 -5.182,-10.29 -8.14,-15.653 -2.271,-4.112 -1.584,-5.183 -1.6,-10.483 l 0.016,-10.469 c 1.039,-3.613 14.825,1.567 16.025,2.863 3.277,3.934 22.484,32.625 25.122,34.975 -0.543,-2.616 -5.453,-10.842 -6.907,-13.681 -6.79,-13.073 -23.398,-38.854 -32.84,-48.704 -2.775,-2.88 -8.269,-6.997 -5.366,-13.785 1.584,-3.975 11.243,-3.173 16.112,-4.527 18.527,-5.14 11.77,-7.547 21.229,-0.694 l 41.579,29.12 c 10.748,7.51 24.819,16.961 35.632,24.902 4.764,3.557 6.474,4.436 9.403,10.378 7.132,14.336 2.551,21.07 9.874,30.608 6.397,8.339 15.256,10.441 29.683,10.441 13.007,0.05 25.057,-1.07 27.752,-12.856 0.657,-3.03 0.958,-6.253 0.503,-9.571 -0.374,-3.429 -1.606,-4.431 -4.26,-5.797 -4.071,-1.903 -10.834,-3.325 -15.217,-4.549 -6.764,-1.784 -10.354,-2.959 -5.468,-10.557 2.245,-3.436 6.02,-8.737 12.05,-8.21 10.825,0.895 22.603,13.864 28.112,3.541 2.295,-4.268 2.968,-11.169 3.327,-16.823 0.494,-7.491 -10.682,-19.565 -15.439,-24.844 -2.951,-3.436 -6.558,-7.837 -10.796,-8.954 -10.979,-2.933 -25.403,4.516 -35.99,1.167 C 87.372,132.862 62.122,112.825 51.022,104.571 L 33.536,91.856 c -1.935,-1.388 -3.871,-2.884 -5.718,-4.1 1.007,-3.173 4.55,-4.037 0.712,-15.218 C 24.835,61.896 20.085,56.717 13.097,49.271 9.891,45.922 6.621,42.523 3.311,39.605 -3.293,33.984 -10.315,27.882 -17.991,22.182 c -8.556,-6.391 -16.936,-8.828 -30.336,-8.021 -0.673,-3.783 -2.096,-36.74 -2.976,-46.073 -0.639,-6.604 -2.982,-9.867 -1.983,-13.433 2.192,-7.859 38.461,-18.27 44.986,-19.983 17.999,-4.828 37.294,-8.042 57.612,-7.268 15.606,0.648 45.224,1.4 57.851,6.774 4.476,1.87 6.515,3.503 9.219,7.277 6.212,8.753 10.922,23.09 15.24,33.383 12.698,30.424 24.986,61.616 37.701,92.249 3.183,7.596 6.382,15.281 9.42,22.909 1.463,3.733 3.047,7.652 4.661,11.498 0.647,1.575 3.87,10.153 4.973,11.331 -0.288,-2.775 -4.326,-16.626 -5.3,-20.614 -10.419,-39.677 -21.453,-82.024 -32.601,-121.428 -1.136,-3.982 -5.621,-17.023 -4.117,-20.325 2.926,-1.633 5.563,1.007 8.051,2.286 6.389,3.399 15.162,8.013 20.726,12.009 4.565,3.231 8.723,6.03 12.906,9.341 14.37,11.29 26.242,25.178 38.237,38.908 2.774,3.174 2.319,2.789 2.319,8.49 0,7.293 -1.241,12.523 -2.424,19.231 -2.182,12.969 -2.663,27.434 -3.157,40.939 -0.161,5.191 -0.584,41.053 -1.416,42.565 -1.144,2.166 -2.983,4.54 -4.279,6.997 -3.893,7.938 -6.596,15.615 -7.947,24.794 -3.151,21.508 5.765,28.76 2.254,34.135 -0.991,1.614 -1.965,0.887 -3.503,1.743 -1.053,1.71 -0.757,3.143 -1.015,5.125 -0.278,2.575 -4.284,10.644 -5.451,12.634 -1.639,2.838 -2.993,4.765 -4.455,7.741 -3.151,6.261 -5.284,14.808 -10.29,12.33 -1.927,-0.977 -17.639,-14.081 -20.31,-15.193"
         style="fill:#00adef;fill-opacity:1;fill-rule:evenodd;stroke:none"
         transform="matrix(1.3333333,0,0,-1.3333333,468.1256,1100.0511)"
         clip-path="url(#clipPath40)" />
      <path
         id="path41"
         d="m 0,0 c -4.229,-1.048 -5.133,-2.823 -7.147,-5.605 -2.056,-2.831 -3.599,-4.702 -5.559,-7.357 -3.908,-5.245 -7.21,-9.963 -10.713,-15.159 -8.325,-12.154 -12.618,-18.649 -18.929,-32.76 -1.509,-3.184 -20.948,-49.696 -22.01,-55.597 -0.849,-4.694 1.646,-6.98 6.131,-7.085 4.272,0 8.668,0.105 12.907,0.255 9.442,0.369 8.723,3.607 11.984,13.467 7.886,23.155 19.318,50.854 31.267,72.052 4.707,8.307 9.673,16.08 14.967,23.932 1.159,1.719 4.845,6.236 5.254,7.596 1.422,4.205 -4.334,4.349 -7.285,4.901 C 7.958,-0.744 2.768,0.655 0,0"
         style="fill:#00adef;fill-opacity:1;fill-rule:evenodd;stroke:none"
         transform="matrix(1.3333333,0,0,-1.3333333,730.09507,508.46387)"
         clip-path="url(#clipPath42)" />
      <path
         id="path43"
         d="m 0,0 c -3.783,-0.575 -7.26,-1.319 -10.867,-2.046 -5.078,-1.064 -4.742,-3.367 -1.847,-6.949 8.827,-10.89 22.524,-35.621 28.85,-48.744 5.605,-11.699 10.211,-23.691 15.136,-36.51 2.454,-6.173 4.765,-12.714 6.916,-19.014 3.167,-9.291 2.079,-9.859 15.752,-10.076 19.43,-0.335 16.456,1.257 5.965,29.057 -11.034,29.156 -17.575,43.619 -34.509,68.871 -3.488,5.18 -7.262,10.299 -10.844,15.025 C 9.787,-4.021 7.651,1.047 0,0"
         style="fill:#00adef;fill-opacity:1;fill-rule:evenodd;stroke:none"
         transform="matrix(1.3333333,0,0,-1.3333333,429.74547,513.34787)"
         clip-path="url(#clipPath44)" />
      <path
         id="path45"
         d="m 0,0 c -11.101,-1.239 -18.479,-2.472 -27.604,-6.637 -10.474,-4.662 -15.768,-11.977 -19.989,-22.253 -3.654,-8.611 4.158,-2.559 7.492,-1.168 1.967,0.824 4.454,1.536 6.453,2.104 21.765,5.668 38.685,6.517 61.201,2.975 4.639,-0.752 9.613,-1.424 13.809,-2.975 12.994,-4.518 7.069,12.153 -13.304,23.02 C 19.766,-0.449 11.273,1.303 0,0"
         style="fill:#00adef;fill-opacity:1;fill-rule:evenodd;stroke:none"
         transform="matrix(1.3333333,0,0,-1.3333333,560.02733,229.62787)"
         clip-path="url(#clipPath46)" />
      <path
         id="path47"
         d="M 0,0 C 3.438,-1.254 11.945,4.27 22.132,6.261 41.78,10.211 55.69,11.139 75.907,8.651 79.919,8.181 84.308,7.557 88.14,6.557 93.073,5.206 97.461,2.247 99.462,3.742 96.358,6.877 82.071,12.458 76.659,14.066 51.494,21.805 21.621,21.581 1.871,2.71 0.495,1.399 0.288,1.479 0,0"
         style="fill:#00adef;fill-opacity:1;fill-rule:evenodd;stroke:none"
         transform="matrix(1.3333333,0,0,-1.3333333,501.00587,306.19813)"
         clip-path="url(#clipPath48)" />
      <path
         id="path49"
         d="m 0,0 c 1.12,6.197 -5.062,9.939 -6.445,14.61 -1.711,5.876 0,13.856 -0.136,20.045 -10.61,-3.094 -17.215,-15.592 -21.285,-24.612 -1.191,-2.63 -2.359,-6.532 -0.616,-9.395 1.743,-2.935 5.901,-0.807 8.78,0.039 C -11.427,3.271 -5.229,-2.414 0,0"
         style="fill:#ffffff;fill-opacity:1;fill-rule:evenodd;stroke:none"
         transform="matrix(1.3333333,0,0,-1.3333333,500.62107,509.17933)"
         clip-path="url(#clipPath50)" />
      <path
         id="path51"
         d="M 0,0 C 4.581,-1.408 8.677,0.464 12.945,1.07 16.511,1.447 23.452,-1.872 25.939,0 30.553,3.39 22.646,17.575 21.095,20.341 18.486,24.844 13.241,33.071 8.363,34.583 6.324,30.744 9.676,26.411 6.659,15.344 5.183,9.866 -0.321,4.742 0,0"
         style="fill:#ffffff;fill-opacity:1;fill-rule:evenodd;stroke:none"
         transform="matrix(1.3333333,0,0,-1.3333333,645.61587,509.08227)"
         clip-path="url(#clipPath52)" />
      <path
         id="path53"
         d="m 0,0 c 0.608,-1.535 5.918,-7.859 7.189,-9.234 1.311,-1.504 2.543,-3.047 3.839,-4.565 1.502,-1.713 2.575,-2.519 3.701,-4.391 3.167,0.271 9.028,3.911 9.739,6.197 C 25.5,-8.57 23.117,-1.982 21.893,0.625 19.167,6.15 17.864,5.341 11.763,3.56 7.86,2.423 3.855,1.257 0,0"
         style="fill:#ffffff;fill-opacity:1;fill-rule:evenodd;stroke:none"
         transform="matrix(1.3333333,0,0,-1.3333333,267.5,1069.9339)"
         clip-path="url(#clipPath54)" />
      <path
         id="path55"
         d="m 0,0 1.816,-1.518 c 2.581,-1.976 10.866,-9.165 12.257,-9.716 0.232,1.199 -0.527,0.129 0.911,1.367 l 20.23,14.816 c 14.273,10.716 29.009,20.751 43.34,31.042 6.14,4.486 16.08,10.675 26.035,11.21 -0.45,1.158 -2.767,3.135 -3.991,4.342 -7.574,7.22 -6.261,8.523 -9.124,16.376 -1.735,-2.398 -1.463,-3.941 -3.845,-6.19 C 83.278,57.483 54.565,38.324 47.08,32.769 42.522,29.282 1.919,0.552 0,0"
         style="fill:#656263;fill-opacity:1;fill-rule:evenodd;stroke:none"
         transform="matrix(1.3333333,0,0,-1.3333333,460.4492,948.20213)"
         clip-path="url(#clipPath56)" />
      <path
         id="path57"
         d="m 0,0 2.288,-9.563 c 2.765,0.288 9.147,2.951 12.138,3.958 3.845,1.295 7.812,2.679 11.697,4.142 2.959,1.09 3.998,1.145 5.477,-0.967 2.184,-3.021 4.623,-5.716 6.677,-9.044 0.92,-1.438 1.783,-3.933 2.871,-5.004 C 40.26,-8.707 36.942,-3.132 33.144,2.745 31.928,4.584 31.009,6.791 28.098,6.846 19.295,6.967 4.838,-2.245 0,0"
         style="fill:#656263;fill-opacity:1;fill-rule:evenodd;stroke:none"
         transform="matrix(1.3333333,0,0,-1.3333333,254.1308,1050.0615)"
         clip-path="url(#clipPath58)" />
      <path
         id="path59"
         d="m 0,0 c -0.359,0.529 -0.167,0.376 -0.784,1.007 l -12.929,10.858 c -0.744,-2.022 -8.652,-2.621 -11.258,-2.83 5.805,-8.506 8.803,-14.783 9.987,-26.322 2.286,3.079 1.663,4.479 6.853,9.467 C -6.157,-6.012 -1.479,-0.854 0,0"
         style="fill:#656263;fill-opacity:1;fill-rule:evenodd;stroke:none"
         transform="matrix(1.3333333,0,0,-1.3333333,366.99213,1041.5849)"
         clip-path="url(#clipPath60)" />
      <path
         id="path61"
         d="m 0,0 c -0.097,2.454 2.591,3.582 5.374,4.766 4.781,2.11 19.356,6.324 22.9,8.037 l -2.047,8.819 C 20.158,20.117 12.928,17.51 6.758,15.536 2.709,14.191 -3.544,12.849 -1.839,4.766 -1.688,3.95 -1.392,3.061 -1.057,2.224 Z"
         style="fill:#656263;fill-opacity:1;fill-rule:evenodd;stroke:none"
         transform="matrix(1.3333333,0,0,-1.3333333,612.36333,833.23987)"
         clip-path="url(#clipPath62)" />
      <path
         id="path63"
         d="m 0,0 c 14.665,-3.47 34.015,8.188 42.058,14.586 5.901,4.644 10.356,8.611 15.384,13.681 15.818,15.854 27.037,28.096 38.949,47.535 3.632,5.86 19.159,30.298 21.869,35.639 l -7.444,-6.845 C 98.678,93.152 85.333,81.624 73.387,70.109 l -22.5,-20.71 C 48.407,47.242 46.049,44.856 43.571,42.523 31.193,31.042 19.143,18.976 6.964,7.285 5.413,5.86 0.536,1.631 0,0"
         style="fill:#100f0d;fill-opacity:1;fill-rule:evenodd;stroke:none"
         transform="matrix(1.3333333,0,0,-1.3333333,468.1256,1100.0511)"
         clip-path="url(#clipPath64)" />
      <path
         id="path65"
         d="m 0,0 c -8.748,4.246 -16.184,8.748 -24.123,13.855 -1.912,1.249 -6.301,3.945 -7.597,5.351 0.88,1.528 2.799,3.159 4.286,5.75 1.368,2.357 2.239,4.686 3.269,7.26 3.72,9.513 6.238,20.837 13.011,28.577 2.759,2.976 7.365,7.661 11.691,9.212 C 0.976,62.594 -3.007,29.834 -2.679,16.376 -2.439,5.685 -0.775,5.484 0,0 m -85.374,71.243 c 3.856,1.257 7.86,2.423 11.764,3.56 6.1,1.781 7.404,2.591 10.13,-2.935 1.224,-2.607 3.606,-9.195 2.574,-12.618 -0.711,-2.286 -6.572,-5.926 -9.739,-6.197 -1.126,1.872 -2.198,2.678 -3.701,4.391 -1.296,1.518 -2.528,3.061 -3.839,4.565 -1.271,1.375 -6.58,7.699 -7.189,9.234 m 60.906,33.127 12.93,-10.858 c 0.616,-0.631 0.424,-0.478 0.784,-1.007 0.991,-0.368 5.389,-3.909 6.405,-5.037 -1.136,-1.807 -3.135,-2.926 -4.662,-4.622 l -9.164,-9.339 c -4.629,-5.726 -7.476,-10.266 -10.274,-17.671 -2.759,-7.276 -4.221,-20.389 -12.506,-24.619 -5.006,-2.511 -26.227,1.973 -32.208,3.591 -4.213,1.07 -10.971,2.821 -11.442,7.123 6.612,2.448 15.152,4.63 22.157,6.724 4.205,1.304 5.565,1.304 7.108,7.524 1.048,4.422 1.176,8.772 1.088,13.491 -1.088,1.07 -1.952,3.565 -2.871,5.004 -2.055,3.327 -4.494,6.022 -6.677,9.044 -1.48,2.111 -2.518,2.056 -5.477,0.967 -3.886,-1.463 -7.852,-2.847 -11.698,-4.143 -2.99,-1.007 -9.372,-3.67 -12.137,-3.958 l -2.288,9.563 c -0.239,2.624 2.119,4.183 5.285,7.134 4.622,4.326 9.084,9.484 12.898,12.987 8.388,7.619 14.432,12.392 26.802,6.194 11.371,-5.859 10.211,-4.66 19.032,-1.158 z M 302.705,65.871 c -1.254,1.839 -2.023,25.14 -2.256,27.163 -0.502,9.179 -1.046,18.605 -1.656,27.729 -0.615,9.165 -1.167,18.19 -1.676,27.284 -0.907,15.624 -0.72,23.043 12.154,30.983 4.636,2.839 4.134,3.47 7.268,7.285 3.829,4.854 9.865,10.123 11.841,17.669 2.526,9.534 2.591,12.74 10.634,18.888 2.862,2.248 5.366,3.878 8.564,5.942 2.967,1.974 5.149,4.862 7.837,6.725 2.39,-12.931 0.23,-39.66 -1.736,-52.854 -4.229,-29.458 -14.096,-58.06 -27.945,-83.39 -5.191,-9.403 -10.587,-17.281 -16.672,-25.403 -1.584,-2.039 -4.693,-6.709 -6.357,-8.021 M -7.892,287.785 c 4.03,-4.943 8.34,-15.473 10.467,-22.637 2.591,-8.964 2.879,-19.648 3.663,-29.411 0.959,-10.057 1.91,-20.318 2.598,-30.353 0.447,-6.579 -2.111,-24.371 -11.843,-9.673 -2.734,4.117 -2.974,7.018 -4.644,12.05 -3.103,9.915 -11.908,33.229 -16.536,41.162 -1.336,2.216 -2.247,3.87 -0.417,5.822 4.838,5.109 9.444,13.952 12.387,20.819 2.454,5.568 3.206,9.734 3.877,11.373 0.488,1.183 0.112,0.398 0.448,0.848 m 181.166,-39.021 c 0.055,-2.52 4.229,-11.092 5.5,-13.378 2.399,-4.365 5.325,-7.628 9.092,-9.987 3.815,-2.381 10.435,1.159 14.418,2.518 2.446,0.84 12.586,4.358 14.584,4.358 5.668,-6.876 -8.715,-20.117 -14.241,-26.546 -4.213,-4.989 -4.735,-5.901 -9.011,-5.574 -9.02,0.631 -15.289,5.024 -25.196,3.44 -6.197,-1.12 -15.873,-5.677 -21.286,-8.23 -7.301,-3.436 -26.458,-18.516 -34.022,-24.099 -8.293,-6.124 -21.062,-16.121 -29.258,-21.685 -1.607,-1.087 -2.783,-2.303 -4.51,-3.277 -1.095,0.653 -5.245,4.1 -5.932,5.004 -1.392,0.551 -9.676,7.74 -12.258,9.716 l -1.816,1.518 -7.084,5.213 c 2.063,2.847 70.02,48.905 76.706,53.423 6.124,4.221 13.961,9.066 16.736,15.591 3.382,8.045 3.382,18.27 6.612,26.172 5.43,13.368 21.58,13.672 35.406,12.473 2.4,-0.2 4.645,-0.527 6.917,-1.184 4.733,-1.344 4.351,-1.542 4.869,-3.844 l 2.048,-8.82 c -3.544,-1.712 -18.119,-5.926 -22.9,-8.037 -2.783,-1.183 -5.471,-2.311 -5.374,-4.765 M -38.86,262.62 c -0.728,-10.713 6.012,-21.63 10.067,-29.186 6.405,-11.808 13.201,-29.296 16.319,-43.089 1.32,-5.909 3.279,-10.227 6.733,-13.057 5.045,-4.159 23.628,-5.998 31.816,-8.164 11.795,-3.263 18.055,-7.101 26.731,-12.818 6.141,-3.958 17.408,-12.217 22.701,-16.903 3.39,-3.215 7.827,-5.454 6.188,-13.521 -0.792,-4.254 -5.581,-9.747 -9.979,-9.884 -8.187,-0.464 -13.385,15.025 -24.419,15.887 1.503,-6.187 10.522,-12.473 15.112,-16.936 1.327,-1.405 2.351,-1.966 3.262,-3.156 2.639,-3.256 0.449,-7.068 -2.142,-8.501 -3.607,-1.974 -7.02,1.345 -9.173,2.767 l -15.247,10.715 c -2.063,1.343 -6.054,4.245 -8.771,3.478 -0.704,-3.264 3.269,-5.726 5.061,-7.23 1.263,-1.045 2.159,-2.102 3.365,-3.084 1.48,-1.234 2.065,-1.801 3.607,-3.303 2.04,-2.111 12.938,-9.764 8.012,-16.505 -1.872,-2.591 -7.101,-2.997 -10.267,-1.534 -3.454,1.655 -16.647,14.913 -23.732,16.224 1.735,-3.831 10.923,-12.964 13.785,-15.601 3.438,-3.278 9.851,-6.86 1.295,-12.05 C 24.284,72.796 16.888,81.566 8.349,88.315 2.591,92.834 -2.479,97.352 -7.996,101.9 l -35.711,30.617 c -2.254,2.377 -6.476,11.05 -7.667,14.505 -2.654,7.972 1.448,17.584 2.311,25.668 -7.212,-3.222 -12.273,-11.21 -17.143,-6.157 -1.799,1.91 -40.509,57.571 -42.852,62.127 -2.79,5.392 -5.101,13.124 -6.739,19.552 -2.288,9.154 -3.047,14.353 0.351,21.893 2.687,5.964 5.661,11.8 8.643,17.583 2.56,4.958 16.136,32.311 18.04,34.455 5.901,6.515 11.889,0.735 17.639,-2.191 10.531,-5.413 22.86,-12.747 34.063,-18.478 4.606,-2.287 14.064,-6.758 16.744,-9.534 4.877,-5.044 0.104,-6.165 -3.848,-17.734 -3.132,-9.506 -7.043,-11.026 -14.695,-11.586 m 352.846,38.164 c 1.488,-0.389 1.464,-0.773 2.888,-3.197 2.926,-5.007 3.494,-7.595 -1.911,-11.586 -3.43,-2.471 -5.14,1.613 -3.67,5.333 1.919,4.91 1.832,8.507 2.693,9.45 m -82.285,-37.596 c 2.671,1.112 18.382,14.216 20.309,15.193 5.007,2.478 7.14,-6.069 10.29,-12.33 1.463,-2.976 2.817,-4.903 4.455,-7.74 1.167,-1.991 5.174,-10.06 5.452,-12.635 0.257,-1.982 -0.039,-3.414 1.015,-5.124 1.537,-0.857 2.512,-0.13 3.503,-1.743 3.511,-5.375 -5.405,-12.627 -2.254,-34.136 1.351,-9.179 4.054,-16.856 7.946,-24.794 1.296,-2.457 3.135,-4.831 4.28,-6.997 0.832,-1.512 1.255,-37.374 1.416,-42.565 0.494,-13.504 0.974,-27.969 3.157,-40.939 1.183,-6.708 2.424,-11.938 2.424,-19.231 0,-5.701 0.455,-5.316 -2.319,-8.49 -11.996,-13.729 -23.868,-27.618 -38.237,-38.908 -4.183,-3.311 -8.342,-6.109 -12.906,-9.341 -5.565,-3.996 -14.337,-8.61 -20.727,-12.009 -2.487,-1.279 -5.125,-3.919 -8.05,-2.286 -1.504,3.302 2.981,16.343 4.117,20.325 11.147,39.404 22.181,81.751 32.6,121.428 0.975,3.988 5.013,17.839 5.301,20.614 -1.103,-1.177 -4.326,-9.755 -4.973,-11.331 -1.615,-3.845 -3.199,-7.765 -4.662,-11.498 -3.038,-7.628 -6.236,-15.313 -9.42,-22.909 C 221.704,85.109 209.416,53.917 196.717,23.493 192.4,13.2 187.69,-1.137 181.478,-9.89 c -2.704,-3.774 -4.743,-5.407 -9.22,-7.277 -12.627,-5.374 -42.244,-6.126 -57.85,-6.773 -20.318,-0.775 -39.613,2.439 -57.613,7.267 -6.524,1.713 -42.794,12.124 -44.985,19.984 -0.999,3.565 1.343,6.829 1.983,13.432 0.88,9.333 2.303,42.29 2.976,46.073 13.4,-0.807 21.78,1.63 30.335,8.021 7.677,5.7 14.698,11.803 21.302,17.424 3.31,2.918 6.581,6.316 9.787,9.665 6.988,7.446 11.738,12.626 15.433,23.267 3.837,11.181 0.295,12.045 -0.712,15.218 1.847,1.216 3.782,2.712 5.717,4.101 l 17.487,12.715 c 11.099,8.253 36.349,28.291 48.383,32.048 10.587,3.349 25.011,-4.1 35.991,-1.167 4.238,1.118 7.844,5.518 10.796,8.954 4.756,5.279 15.933,17.353 15.439,24.844 -0.359,5.655 -1.032,12.555 -3.327,16.823 -5.509,10.324 -17.287,-2.646 -28.112,-3.541 -6.031,-0.527 -9.805,4.774 -12.05,8.21 -4.886,7.598 -1.296,8.773 5.468,10.557 4.382,1.225 11.146,2.647 15.216,4.549 2.655,1.366 3.887,2.368 4.261,5.797 0.455,3.318 0.153,6.541 -0.503,9.571 -2.695,11.786 -14.745,12.906 -27.753,12.857 -14.427,0 -23.285,-2.103 -29.682,-10.442 -7.324,-9.538 -2.743,-16.271 -9.874,-30.607 -2.929,-5.943 -4.639,-6.822 -9.404,-10.379 -10.812,-7.941 -24.884,-17.392 -35.631,-24.902 l -41.579,-29.12 c -9.459,-6.853 -2.702,-4.446 -21.229,0.695 -4.869,1.353 -14.528,0.551 -16.112,4.526 -2.903,6.788 2.591,10.905 5.366,13.785 9.442,9.851 26.05,35.631 32.84,48.704 1.454,2.839 6.363,11.066 6.907,13.681 -2.638,-2.35 -21.845,-31.041 -25.122,-34.975 -1.2,-1.296 -14.986,-6.475 -16.025,-2.863 l -0.016,10.469 c 0.016,5.301 -0.672,6.371 1.6,10.483 2.957,5.363 5.341,10.29 8.14,15.653 5.212,9.893 10.075,21.63 15.191,32.505 5.086,10.947 10.012,21.797 15.04,32.648 4.975,10.754 10.356,21.718 15.041,32.568 l 146.776,2.863 c 1.318,-3.75 8.57,-19.094 10.859,-23.997 3.796,-8.425 7.403,-15.785 11.065,-24.099 6.876,-15.808 8.675,-15.026 -5.35,-36.104 -2.246,-3.435 -4.966,-7.092 -7.027,-10.633 m 141.674,-2.478 c -1.346,-0.697 -4.305,-4.39 -6.215,-6.221 -7.419,-7.301 -11.243,-10.916 -19.431,-17.344 -4.669,-3.711 -9.003,-6.58 -14.537,-10.124 -3.285,-2.03 -3.646,-2.678 -5.764,-6.356 l -12.761,-23.933 c -7.419,-14.256 -12.748,-21.179 -21.684,0.543 -2.457,6.07 -4.447,11.829 -5.383,18.88 -2.086,15.481 4.839,28.116 11.281,37.508 11.971,17.266 25.846,20.567 42.716,30.746 15.289,9.187 16.208,12.179 27.652,21.67 4.468,3.662 8.498,7.387 13.104,11.152 16.526,13.522 30.6,25.517 46.368,39.653 1.025,0.889 1.911,2.432 3.711,2.487 1.983,0.192 2.68,-1.35 3.654,-2.383 8.276,-9.403 21.341,-22.01 30.202,-31.639 3.14,-3.374 9.667,-9.396 10.817,-13.393 4.455,-15.514 -2.75,-19.647 -8.355,-25.764 l -6.445,-6.051 c -20.279,-17.927 -43.89,-31.89 -71.18,-39.151 -33.32,-8.907 -14.808,3.758 -17.75,19.72 m -37.095,48.886 c 1.049,-1.263 2.432,-2.262 1.71,-4.54 -0.486,-1.592 -1.422,-2.943 -3.373,-2.905 -0.961,0.907 -5.902,11.82 -5.735,13.898 1.68,-0.447 6.07,-4.933 7.398,-6.453 m -43.747,11.819 c 4.199,2.254 5.078,-3.039 4.743,-6.316 -0.393,-3.448 -1.241,-6.989 -1.856,-10.307 -1.63,-9.044 -5.814,-32.881 -6.437,-41.252 -0.208,-3.239 -0.584,-7.812 -4.484,-7.67 -3.223,0.146 -3.799,4.025 -4.95,6.75 -2.281,5.58 -5.078,11.201 -7.556,16.655 -2.241,5.037 -6.637,12.402 -2.993,18.032 l 11.468,12.339 c 3.479,3.068 9.882,10.682 12.065,11.769 m -359.155,51.351 c 3.15,1.199 6.029,-2.273 10.627,-5.75 13.881,-10.555 14.025,-11.809 25.971,-24.139 2.766,-2.767 6.028,-5.254 8.442,-8.468 1.944,-2.487 5.206,-7.085 5.806,-10.754 0.712,-4.279 0,-11.611 -1.191,-15.443 -0.776,-2.558 -1.471,-4.222 -4.573,-3.684 -6.445,1.055 -22.574,10.739 -27.738,13.848 -7.093,4.214 -13.866,8.396 -20.75,12.762 -15.352,9.708 -12.387,14.385 -4.39,32.776 1.535,3.582 2.647,6.996 7.796,8.852 m -68.103,-154.42 c 0,27.827 4.951,54.342 13.187,78.434 5.644,16.422 13.256,32.615 22.06,47.017 2.151,3.406 6.836,11.336 9.131,13.529 -0.727,-2.608 -2.151,-5.901 -3.142,-8.542 -4.309,-11.048 -5.469,-13.065 -10.618,-23.754 -5.005,-10.211 -9.715,-20.911 -14.018,-31.665 -5.493,-13.512 -8.596,-20.605 -8.004,-37.495 0.265,-7.059 0.808,-14.086 1.655,-21.141 1.176,-9.898 1.064,-7.251 6.349,-16.383 17.063,-29.337 18.415,-29.816 37.638,-53.614 4.821,-5.972 18.359,-20.379 20.845,-24.706 1.672,-2.549 2.687,-5.325 4.165,-7.611 3.407,-5.078 15.202,-13.395 17.52,-16.17 -6.749,-1.126 -13.921,2.824 -18.998,5.031 -3.303,1.397 -7.301,0.384 -10.419,-0.585 -4.454,-1.429 -4.773,-1.767 -7.492,-4.213 -7.101,-6.302 -11.523,-10.891 -19.239,-17.161 -2.311,-1.935 -4.566,-3.269 -6.148,-5.539 -1.584,1.046 -3.214,4.7 -4.134,6.357 -19.926,36.093 -30.338,75.816 -30.338,118.211 m 523.451,177.8 c 3.67,1.478 4.845,-0.977 6.453,-2.583 l 13.513,-14.322 c 5.493,-6.596 11.018,-7.908 1.84,-16.28 l -31.937,-33.566 c -9.228,-10.132 -12.618,-15.929 -22.508,-8.38 -13.203,10.188 -14.353,10.907 -7.335,21.75 7.165,11.251 13.851,23.531 21.814,34.423 3.303,4.523 13.785,17.246 18.16,18.958 M -14.8,345.595 c -2.455,0.417 -33.423,23.188 -36.438,25.315 -3.118,2.095 -5.942,4.167 -9.02,6.278 -2.207,1.551 -3.101,1.342 -3.101,4.757 0,2.366 0.391,5.094 0.846,7.381 1.607,8.523 4.543,16.167 7.036,23.995 7.885,24.284 18.064,41.78 37.063,56.251 3.501,2.657 15.104,10.436 19.822,11.33 1.455,-1.966 3.198,-3.438 5.006,-5.467 29.768,-34.36 41.594,-57.612 56.315,-103.998 2.11,-6.779 4.158,-10.274 1.671,-17.32 -1.895,-5.292 -4.063,-10.258 -6.245,-15.206 -9.163,-20.535 -17.464,-38.022 -26.45,-59.187 -2.103,-4.942 -4.19,-10.132 -6.654,-14.792 -1.582,-2.872 -8.123,-10.267 -10.266,-10.996 -2.463,25.917 -6.637,56.043 -10.012,82.535 -0.614,4.487 0,4.125 1.576,7.757 2.144,5.012 4.167,9.571 6.261,14.369 3.471,8.042 10.251,20.877 10.627,30.729 -0.855,-0.728 -0.521,-0.376 -1.271,-1.409 l -2.959,-4.262 C 16.816,380.369 8.22,367.145 6.621,365.92 1.72,366.911 1.839,375.596 1.344,380.704 l -3.311,37.959 c -0.208,3.949 -0.679,16.15 -1.487,18.942 -2.335,-7.628 -2.487,-82.23 -11.346,-92.01 m 332.848,115.709 c -4.309,-8.619 -4.717,-82.063 -12.137,-93.504 L 270.56,324.391 c -4.869,-5.902 -8.987,-13.516 -14.266,-12.012 -2.478,0.681 -4.117,5.404 -5.434,8.092 l -8.55,17.608 c -5.556,11.193 -8.666,15.311 -4.156,30.847 10.6,36.526 29.521,78.025 50.797,107.123 4.743,6.429 6.063,10.036 16.608,5.71 6.133,-2.487 12.193,-5.861 17.008,-9.253 10.779,-7.699 17.311,-17.007 25.524,-26.977 2.182,-2.75 22.349,-26.754 23.131,-29.394 2.153,-6.989 -2.909,-14.641 -5.58,-19.645 -6.165,-11.603 -12.034,-22.804 -18.36,-34.072 -2.142,-3.709 -7.892,-14.833 -13.761,-11.441 -3.861,2.27 -8.451,10.307 -10.06,16.071 -4.212,14.274 1.192,32.903 1.354,48.351 0.102,8.062 0,17.345 -1.024,25.069 z m -121.017,19.727 c 8.674,1.447 32.543,-2.775 23.507,-16.224 -1.998,-2.927 -4.046,-5.413 -6.158,-8.243 -4.276,-5.693 -8.675,-11.372 -13.065,-16.881 l -38.916,-49.959 c -1.439,-1.823 -9.732,-11.641 -9.363,-13.008 1.144,-4.071 19.181,12.121 21.149,13.735 0.944,0.84 7.516,7.038 9.171,3.008 1.399,-3.631 -1.752,-8.772 -2.71,-11.882 -4.046,-13.777 -2.871,-12.923 -24.989,-12.003 -6.755,0.288 -8.953,6.469 -9.074,13.211 -0.025,9.801 0.063,19.573 0.121,29.416 0,7.357 -0.728,23.085 0.614,29.379 2.407,10.897 10.115,20.531 18.366,26.089 8.501,5.614 20.76,11.539 31.347,13.362 M 118.382,424.38 c 0.448,2.63 -4.75,12.824 -6.207,15.47 -6.779,14.532 -8.731,14.993 -17.391,25.78 -1.703,2.039 -9.699,9.843 -10.034,10.996 13.01,0.991 21.781,-1.153 29.33,-7.828 22.363,-19.991 19.495,-28.948 19.495,-55.351 0,-12.343 -0.121,-24.802 0,-37.178 0.071,-3.394 -0.329,-5.855 -2.864,-6.934 -7.957,-3.549 -10.331,8.275 -12.403,14.767 -3.094,9.909 -5.972,18.122 -9.882,27.388 -6.637,15.328 -13.249,23.323 -20.542,35.574 -1.342,2.366 -0.784,4.853 -2.015,7.197 -1.015,1.869 -2.686,3.974 -3.262,5.918 1.544,-0.936 3.582,-2.808 5.174,-3.953 2.374,-1.869 3.925,-1.029 6.069,-3.189 l 15.496,-21.367 c 5.029,-6.804 5.421,-9.93 9.036,-7.29 m -82.071,64.303 c 7.651,1.047 9.786,-4.021 14.551,-10.387 3.582,-4.725 7.357,-9.844 10.844,-15.024 16.934,-25.252 23.475,-39.715 34.51,-68.871 10.491,-27.8 13.465,-29.392 -5.965,-29.057 -13.673,0.217 -12.585,0.785 -15.752,10.076 -2.151,6.3 -4.462,12.841 -6.916,19.014 -4.926,12.818 -9.532,24.811 -15.137,36.509 -6.325,13.123 -20.022,37.855 -28.85,48.745 -2.894,3.582 -3.23,5.885 1.847,6.949 3.607,0.727 7.085,1.471 10.868,2.046 m 225.262,3.663 c 2.767,0.654 7.958,-0.744 10.867,-1.36 2.951,-0.552 8.707,-0.696 7.285,-4.901 -0.409,-1.36 -4.096,-5.877 -5.254,-7.597 -5.295,-7.851 -10.261,-15.625 -14.968,-23.931 -11.948,-21.198 -23.38,-48.897 -31.266,-72.052 -3.261,-9.86 -2.542,-13.099 -11.985,-13.467 -4.238,-0.151 -8.634,-0.255 -12.906,-0.255 -4.485,0.104 -6.98,2.391 -6.132,7.085 1.063,5.901 20.501,52.413 22.011,55.597 6.311,14.111 10.604,20.605 18.929,32.76 3.503,5.196 6.804,9.914 10.713,15.158 1.96,2.656 3.503,4.527 5.558,7.358 2.015,2.781 2.918,4.556 7.148,5.605 M 94.937,525.104 c 0.48,0.984 1.759,1.191 2.75,0.456 1.256,-1.175 3.726,-11.386 16.84,-20.397 30.881,-21.341 49.047,8.443 56.226,-1.064 5.046,-6.596 -11.953,-17.527 -14.887,-20.597 -3.27,-3.335 -6.006,-5.822 -9.067,-9.404 -1.103,-1.312 -3.038,-3.783 -3.815,-5.572 -1.192,-2.663 -0.367,-4.919 -3.061,-6.206 -2.519,0.543 -7.197,7.979 -8.893,10.076 -2.814,3.653 -5.58,6.78 -8.611,9.978 -8.563,9.276 -21.917,16.551 -26.299,30.273 -0.784,2.215 -2.078,10.723 -1.183,12.457 m 109.936,-17.878 c 3.016,11.067 -0.335,15.4 1.704,19.238 4.878,-1.511 10.123,-9.738 12.731,-14.241 1.551,-2.766 9.458,-16.951 4.845,-20.341 -2.487,-1.872 -9.429,1.447 -12.994,1.07 -4.269,-0.606 -8.365,-2.478 -12.946,-1.07 -0.321,4.742 5.183,9.866 6.66,15.344 M 89.467,491.809 c -5.228,-2.414 -11.426,3.271 -19.702,0.688 -2.878,-0.847 -7.036,-2.975 -8.78,-0.04 -1.742,2.863 -0.574,6.765 0.617,9.396 4.069,9.019 10.674,21.517 21.285,24.611 0.135,-6.189 -1.576,-14.169 0.135,-20.045 1.384,-4.671 7.565,-8.413 6.445,-14.61 m 330.77,-104.226 c -4.748,4.518 -9.747,10.307 -13.584,13.911 -9.355,8.789 -18.574,17.281 -28.61,26.301 l -7.268,6.859 c -2.424,2.55 -4.519,4.414 -6.926,6.821 -15.439,15.432 -21.395,25.132 -41.387,41.003 -12.058,9.532 -20.46,12.395 -38.829,16.591 -7.298,1.712 -15.472,3.127 -23.411,3.862 -8.421,0.88 -16.881,-0.343 -24.533,3.039 -4.581,1.975 -6.324,7.908 -8.962,12.098 -8.509,13.769 -22.148,19.359 -33.935,27.819 -3.398,2.479 -1.287,6.276 -0.154,9.923 0.937,2.846 2.312,8.084 3.456,10.355 3.382,0.111 17.568,-4.391 21.454,-5.582 6.788,-2.071 13.689,-4.518 20.205,-6.869 43.035,-15.784 84.094,-41.659 116.871,-71.46 10.521,-9.506 17.342,-17.239 26.809,-27.257 4.125,-4.335 8.028,-9.116 12.259,-14.378 17.68,-22.349 24.212,-33.496 37.132,-56.986 1.12,-1.922 3.95,-7.03 4.447,-9.22 -2.224,0.744 -12.698,10.921 -15.034,13.17 M -85.493,47.879 c -1.632,-0.983 -3.814,-1.519 -5.07,-3.045 -0.888,-3.264 2.12,-18.52 3.783,-21.341 1.559,-2.929 16.671,-4.806 20.397,-5.399 3.918,-0.582 7.205,-1.037 11.195,-1.454 4.67,-0.449 5.413,-2.254 8.388,-4.423 25.779,-19.302 51.79,-33.095 85.525,-42.833 44.458,-12.906 90.57,-13.409 136.195,-2.169 24.556,6.047 51.072,17.185 72.149,30.394 14.273,8.932 25.212,16.969 36.702,27.194 2.374,2.192 4.436,4.254 6.755,6.189 4.726,4.151 8.213,8.388 12.835,13.032 6.341,6.429 17.872,22.102 22.579,28.635 21.638,30.817 37.909,72.371 42.564,111.375 0.92,7.862 1.656,15.489 1.95,23.381 0.376,8.798 -0.152,17.008 -0.231,25.412 13.856,-0.552 14.921,-1.919 29.696,3.829 18.512,7.101 42.604,17.833 57.748,29.906 l 9.628,7.668 c 6.931,-38.82 5.547,-87.876 -2.303,-125.719 C 453.788,94.497 434.206,49.847 402.264,6.052 310.684,-119.451 142.13,-174.634 -11.114,-120.156 c -34.223,12.259 -71.38,32.032 -99.438,54.523 -16.608,13.267 -30.073,24.638 -44.778,40.852 -61.082,67.238 -95.735,151.684 -94.849,246.804 0.633,74.565 25.811,147.943 67.927,205.322 13.072,17.808 27.937,35.142 43.882,49.887 1.607,1.528 2.75,2.935 4.502,4.351 3.229,2.566 5.837,5.237 9.019,7.979 43.179,36.526 90.49,61.698 146.631,75.922 13.344,3.487 46.328,10.012 59.339,9.684 5.475,-14.704 7.546,-15.808 2.502,-30.25 -3.375,-9.731 -13.01,-8.842 -20.015,-18.75 C 55.612,514.862 63.345,511.591 56.284,507.194 45.554,500.356 35.791,504.81 13.513,497.838 7.229,495.815 0.976,493 -5.062,490.546 c -29.416,-11.57 -45.121,-45.522 -57.194,-72.948 -5.749,-13.008 -0.336,-6.291 -9.667,-16.104 -2.136,-2.199 -3.743,-3.645 -6.485,-6.421 -9.244,-9.513 -21.446,-25.442 -28.834,-36.556 -37.102,-55.58 -53.389,-134.781 -32.824,-208.889 9.78,-35.252 27.882,-70.491 51.583,-97.879 l 2.207,-2.693 c 0.671,-0.84 0.447,-0.401 0.783,-1.177 M 70.485,604.873 c 0,1.847 -0.112,4.253 0.513,5.517 2.646,0.871 2.934,-1.08 3.325,-3.158 l 2.048,-11.747 c 0.478,-2.063 2.846,-5.045 -0.257,-5.069 -4.094,-0.095 -5.629,10.962 -5.629,14.457 m 12.73,17.951 c 2.591,0.951 5.517,2.366 8.3,3.367 10.059,3.821 17.831,5.317 29.049,5.124 8.004,-0.071 36.142,-0.831 39.716,-6.244 -0.816,-1.463 -2.216,-1.576 -4.126,-2 -16.279,-3.133 -15.591,-7.524 -14.169,-27.026 0.864,-12.081 7.469,-28.369 -5.317,-25.051 -3.942,0.92 -5.805,1.543 -9.818,-0.265 -8.836,-3.901 1.927,-8.754 8.371,-9.251 5.74,-0.439 16.823,-0.191 20.59,2.863 5.676,4.63 -8.715,30.921 -3.215,38.724 4.733,1.056 10.338,-3.39 18.606,-0.343 5.102,1.806 12.299,4.774 14.281,-2.271 5.007,-17.967 -9.418,-78.841 -40.564,-84.502 -13.952,-2.462 -25.099,3.751 -31.624,10.219 -6.269,6.045 -11.594,16.104 -15.368,26.651 -5.724,16.023 -14.2,52.99 -14.712,70.005 m 6.541,21.221 c 0.288,1.479 0.495,1.399 1.87,2.71 19.751,18.871 49.624,19.095 74.789,11.356 5.412,-1.609 19.699,-7.189 22.803,-10.324 -2.001,-1.495 -6.389,1.463 -11.322,2.815 -3.832,1 -8.221,1.624 -12.233,2.094 -20.217,2.488 -34.127,1.56 -53.775,-2.39 -10.187,-1.992 -18.694,-7.515 -22.132,-6.261 m 44.266,57.428 c 11.273,1.302 19.766,-0.449 28.058,-4.934 20.373,-10.867 26.298,-27.538 13.304,-23.02 -4.196,1.551 -9.17,2.222 -13.809,2.974 -22.516,3.542 -39.436,2.694 -61.201,-2.974 -1.999,-0.568 -4.486,-1.28 -6.453,-2.104 -3.334,-1.392 -11.146,-7.444 -7.492,1.168 4.221,10.275 9.515,17.59 19.989,22.252 9.124,4.166 16.503,5.398 27.604,6.638 M -264.795,228.31 v -20.782 c 0.424,-1.057 1.951,-26.908 2.399,-31.193 13.369,-125.77 93.952,-239.527 209.183,-294.493 149.605,-71.435 309.039,-33.727 409.467,53.503 12.995,11.402 30.759,28.521 41.722,41.905 2.616,3.272 5.054,6.077 7.607,9.341 63.007,80.144 91.832,180.98 76.721,284.873 -0.697,4.886 -1.425,9.555 -2.328,14.311 -0.856,4.368 1.455,4.167 4.573,11.644 3.992,9.506 1.216,19.159 -2.607,27.427 -3.132,6.588 -8.916,14.55 -14.472,19.039 -4.726,3.829 -4.334,3.173 -6.917,9.642 -7.932,20.037 -17.055,38.461 -27.818,56.292 -11.152,18.39 -22.003,32.935 -34.989,48.655 -21.383,25.724 -52.159,52.702 -80.353,70.989 -6.989,4.494 -13.593,8.427 -20.845,12.753 -23.373,13.761 -68.534,32.624 -96.361,38.045 0.514,4.43 3.288,12.986 4.502,18.056 1.424,6.211 2.929,13.072 3.335,19.757 1.52,22.261 -9.283,52.814 -20.51,70.365 -5.748,9.003 -13.847,15.552 -26.353,19.71 -11.301,3.75 -28.259,5.518 -40.726,3.503 C 108.898,709.845 97.367,704.279 90.09,695.899 68.478,671.319 72.02,654.256 75.058,623.495 l -3.557,-2.685 c -1.671,-0.826 -2.607,-1.081 -3.814,-2.28 -4.054,-3.933 -4.238,-15.041 -3.399,-20.485 0.313,-1.847 0.551,-3.311 1.08,-5.038 0.831,-2.247 1.519,-2.567 1.615,-4.207 v -0.272 C 61.257,587.337 54.221,586.842 48.321,585.874 -18.606,574.888 -78.105,546.55 -129.646,504.442 l -8.724,-7.387 c -1.247,-1.048 -1.807,-1.783 -2.967,-2.631 -1.943,-1.591 -3.695,-3.503 -5.501,-5.077 -1.903,-1.695 -3.75,-3.646 -5.477,-5.389 -2,-1.919 -3.607,-3.495 -5.509,-5.47 -1.712,-1.758 -3.742,-3.542 -5.454,-5.414 -15.663,-17.575 -24.708,-28.05 -38.348,-48.142 -34.848,-51.368 -56.524,-113.193 -61.786,-176.201 -0.28,-3.829 -0.512,-18.27 -1.383,-20.421"
         style="fill:#100f0d;fill-opacity:1;fill-rule:evenodd;stroke:none"
         transform="matrix(1.3333333,0,0,-1.3333333,381.33133,1164.9248)"
         clip-path="none" />
      <path
         id="path67"
         d="M 0,0 C 0.606,-1.503 12.441,-11.826 23.548,-4.246 30.729,0.535 39.029,8.819 28.096,14.472 11.762,22.7 -11.274,11.57 -7.789,6.094 -4.686,1.359 -0.144,7.068 3.822,7.068 4.989,3.734 0.671,2.55 0,0"
         style="fill:#100f0d;fill-opacity:1;fill-rule:evenodd;stroke:none"
         transform="matrix(1.3333333,0,0,-1.3333333,513.03187,355.176)"
         clip-path="url(#clipPath68)" />
      <path
         id="path69"
         d="m 0,0 c 5.317,0 11.01,-0.608 15.616,1.544 1.583,0.694 4.518,2.494 3.055,4.685 -2.248,3.374 -30.026,4.573 -35.59,-1.191 C -16.729,-2.615 -4.935,0 0,0"
         style="fill:#100f0d;fill-opacity:1;fill-rule:evenodd;stroke:none"
         transform="matrix(1.3333333,0,0,-1.3333333,565.18747,442.0764)"
         clip-path="url(#clipPath70)" />
      <path
         id="path71"
         d="M 0,0 C -0.153,-4.398 5.86,-7.364 10.396,-8.053 16.519,-8.9 32.502,-2.8 24.836,0.318 22.747,1.183 18.591,0.847 16.223,0.847 11.147,0.878 4.134,2.078 0,0"
         style="fill:#100f0d;fill-opacity:1;fill-rule:evenodd;stroke:none"
         transform="matrix(1.3333333,0,0,-1.3333333,548.36333,448.1096)"
         clip-path="url(#clipPath72)" />
      <path
         id="path73"
         d="m 0,0 c -0.255,-3.453 2.119,-14.68 2.799,-18.871 0.992,-6.45 2.159,-13.543 9.667,-12.577 7.845,0.977 7.124,7.23 5.933,14.52 -1.016,6.311 -2.278,12.778 -3.095,19.193 z"
         style="fill:#ed1c24;fill-opacity:1;fill-rule:evenodd;stroke:none"
         transform="matrix(1.3333333,0,0,-1.3333333,87.5156,930.57973)"
         clip-path="url(#clipPath74)" />
      <path
         id="path75"
         d="m 0,0 c 0.319,-5.205 1.872,-12.339 2.727,-17.529 1.055,-6.091 1.406,-13.184 8.7,-12.08 7.284,1.133 5.805,7.565 4.733,14.047 C 15.136,-9.459 14.249,-3.846 13.186,2.231 11.107,2.462 1.544,0.864 0,0"
         style="fill:#ed1c24;fill-opacity:1;fill-rule:evenodd;stroke:none"
         transform="matrix(1.3333333,0,0,-1.3333333,120.74733,925.5028)"
         clip-path="url(#clipPath76)" />
      <path
         id="path77"
         d="m 0,0 c 1.184,1.137 2.487,1.919 3.277,3.47 l -20.292,7.652 C -16.614,8.957 -10.713,-8.309 -9.834,-9.442 -6.741,-6.955 -3.055,-3.005 0,0"
         style="fill:#ed1c24;fill-opacity:1;fill-rule:evenodd;stroke:none"
         transform="matrix(1.3333333,0,0,-1.3333333,823.43493,1181.0028)"
         clip-path="url(#clipPath78)" />
      <path
         id="path79"
         d="m 0,0 c 3.438,0.129 7.229,1.721 10.242,-0.206 2.815,-1.68 3.67,-4.312 5.686,-6.349 0.655,1.518 -0.28,0.143 1.064,0.863 0.151,0.088 0.504,0.174 0.639,0.255 l 3.102,1.295 c 2.048,1.136 1.751,0.455 3.599,1.68 l 2.079,1.24 c 0.719,0.223 0.215,-0.112 0.719,0.223 C 25.268,0.241 23.468,2.399 20.981,4.12 12.793,9.771 9.411,10.925 2.646,3.063 1.759,2.056 0.696,1.082 0,0"
         style="fill:#ffffff;fill-opacity:1;fill-rule:evenodd;stroke:none"
         transform="matrix(1.3333333,0,0,-1.3333333,285.4336,1030.9027)"
         clip-path="url(#clipPath80)" />
      <path
         id="path81"
         d="M 0,0 C -1.479,2.045 -2.862,3.494 -4.518,4.836 -5.357,3.494 -4.622,4.485 -5.597,3.837 l -7.214,-4.125 c -0.095,0 -0.15,-0.071 -0.254,-0.154 l -1.974,-1.413 c 2.374,-2.257 2.621,-3.887 5.413,-5.927 1.199,-2.805 3.925,-4.556 7.022,-5.196 3.532,-0.672 7.531,-1.4 11.201,-1.567 4.916,-0.329 5.981,2.053 7.955,4.748 1.672,2.232 3.927,5.397 5.157,8.246 C 14.24,-3.104 3.527,-5.742 0,0"
         style="fill:#ffffff;fill-opacity:1;fill-rule:evenodd;stroke:none"
         transform="matrix(1.3333333,0,0,-1.3333333,624.8464,868.67733)"
         clip-path="url(#clipPath82)" />
      <path
         id="path83"
         d="m 0,0 c 0,-3.494 1.535,-14.552 5.628,-14.457 3.103,0.025 0.736,3.007 0.257,5.07 L 3.837,2.359 C 3.446,4.437 3.158,6.389 0.512,5.518 -0.112,4.253 0,1.848 0,0"
         style="fill:#e69d80;fill-opacity:1;fill-rule:evenodd;stroke:none"
         transform="matrix(1.3333333,0,0,-1.3333333,475.31187,358.428)"
         clip-path="url(#clipPath84)" />
      <path
         id="path85"
         d="m 0,0 c -0.861,-0.943 -0.773,-4.54 -2.692,-9.45 -1.471,-3.72 0.239,-7.804 3.67,-5.333 5.404,3.991 4.836,6.579 1.91,11.586 C 1.464,-0.773 1.488,-0.39 0,0"
         style="fill:#ffffff;fill-opacity:1;fill-rule:evenodd;stroke:none"
         transform="matrix(1.3333333,0,0,-1.3333333,799.9792,763.8792)"
         clip-path="url(#clipPath86)" />
      <path
         id="path87"
         d="M 0,0 C 1.951,-0.038 2.888,1.312 3.373,2.904 4.096,5.183 2.712,6.182 1.663,7.444 0.335,8.965 -4.055,13.45 -5.734,13.897 -5.901,11.819 -0.961,0.906 0,0"
         style="fill:#ed1c24;fill-opacity:1;fill-rule:evenodd;stroke:none"
         transform="matrix(1.3333333,0,0,-1.3333333,827.48693,762.05627)"
         clip-path="url(#clipPath88)" />
      <path
         id="path89"
         d="m 0,0 c 0.816,-6.365 2.079,-12.832 3.095,-19.143 1.191,-7.29 1.912,-13.543 -5.933,-14.52 -7.509,-1.016 -8.675,6.127 -9.667,12.577 -0.68,4.191 -3.054,15.418 -2.799,18.871 z m 9.62,1.593 c 1.471,0.864 11.107,2.462 13.186,2.143 1.062,-5.989 1.91,-11.602 2.974,-17.705 1.072,-6.482 2.551,-12.914 -4.734,-14.048 -7.293,-1.103 -7.644,5.99 -8.7,12.08 -0.855,5.191 -2.407,12.325 -2.726,17.53 m -36.662,9.843 c -0.383,-0.64 -0.208,-0.055 -0.312,-1.016 -0.127,-0.849 -0.071,0.137 -0.071,-0.728 l 3.598,-21.454 c 1.199,-7.164 2.302,-16.062 4.285,-22.837 4.917,-16.221 27.195,-15.991 30.29,-0.43 1.542,-0.799 2.207,-2.153 3.605,-3.256 1.239,-0.854 2.391,-1.485 4.07,-1.91 3.654,-0.863 7.645,-0.193 10.644,1.344 5.9,3.053 8.203,8.339 7.452,17.263 l -7.452,42.243 c -2.999,-1.504 1.438,-2.343 -5.542,-3.471 L -20.341,9.78 c -6.189,-1.015 -3.878,1.128 -6.701,1.656"
         style="fill:#ffffff;fill-opacity:1;fill-rule:nonzero;stroke:none"
         transform="matrix(1.3333333,0,0,-1.3333333,107.9212,927.62653)"
         clip-path="url(#clipPath90)" />
      <path
         id="path91"
         d="m 0,0 c 0.888,12.648 1.127,6.909 4.669,8.786 -0.335,1.719 -1.927,2.616 -3.054,3.862 -1.048,1.271 -9.172,10.58 -9.964,10.58 -2.374,-0.04 1.28,-1.983 -1.35,-4.574 l -36.183,-32.535 c -2.334,-2.424 -3.285,-0.217 -4.98,-1.064 -0.113,-1.096 1.366,-2.087 2.493,-3.344 l 7.198,-8.18 c 1.007,-1.046 0.279,-0.773 1.814,-1.111 1.272,3.544 -3.15,1.52 4.894,8.404 2.574,2.191 4.622,4.263 7.212,6.517 1.847,1.655 13.331,12.218 14.929,13.106 -0.112,-10.268 -1.824,-29.323 -2.662,-41.076 -0.953,-13.417 -0.688,-7.173 -4.558,-9.3 0.679,-1.59 4.669,-5.246 6.132,-7.002 1.12,-1.417 1.968,-2.144 3.222,-3.607 1.008,-1.065 1.888,-2.92 3.167,-2.736 0.632,1.295 -0.536,2.486 0.528,3.999 l 18.631,16.936 c 3.622,3.214 7.452,6.675 10.819,9.793 l 8.148,7.214 c 2.103,0.864 4.645,-1.063 3.821,1.057 -0.08,0.456 -0.247,0.544 -0.64,0.933 -0.615,0.727 -0.934,0.898 -1.63,1.647 -2.487,2.607 -6.773,8.843 -9.099,9.14 -0.489,-2.231 1.231,-2.775 -1.089,-4.949 L 0.75,-37.047 c -1.437,-1.326 -1.774,-1.949 -3.333,-2.998 -0.312,7.39 1.08,19.151 1.727,26.93 C -0.616,-8.806 -0.296,-4.279 0,0"
         style="fill:#ffffff;fill-opacity:1;fill-rule:nonzero;stroke:none"
         transform="matrix(1.3333333,0,0,-1.3333333,228.89653,1131.1487)"
         clip-path="url(#clipPath92)" />
      <path
         id="path93"
         d="m 0,0 c -8.819,-0.848 -20.461,6.574 -24.108,10.716 -16.656,18.926 10.691,48.568 34.511,23.637 6.445,-6.813 4.79,-8.677 5.037,-11.691 1.84,0.143 5.197,2.805 6.925,3.983 l 4.878,3.198 c 1.519,1.207 0.639,0 1.118,1.35 -1.518,1.424 -2.349,0 -4.428,2.487 -1.016,1.191 -1.871,2.352 -2.887,3.703 C 15.88,44.179 6.742,50.569 -2.111,53.319 -19.422,58.732 -31.6,50.759 -37.805,39.899 -49.959,18.416 -32.896,-0.397 -13.592,-7.084 -8.299,-8.898 3.151,-11.465 9.331,-10.482 8.94,-8.108 7.3,-8.292 9.051,-5.325 l 5.478,9.099 c 1.776,2.952 2.294,0.999 4.566,2.424 -0.408,1.351 0.104,0.678 -3.079,2.583 L -4.566,21.304 c -2.03,1.676 -0.232,1.948 -1.319,3.883 -1.511,-0.463 -1.511,-1.191 -2.374,-2.67 -0.824,-1.518 -5.158,-7.348 -4.759,-8.836 2.04,-0.758 1.72,1.913 4.991,0.216 L 3.822,6.533 Z"
         style="fill:#ffffff;fill-opacity:1;fill-rule:nonzero;stroke:none"
         transform="matrix(1.3333333,0,0,-1.3333333,324.4212,1267.1148)"
         clip-path="url(#clipPath94)" />
      <path
         id="path95"
         d="m 0,0 c -1.024,-1.855 0.28,-2.081 -1.655,-3.552 l -23.404,-11.314 c -3.543,-1.752 -10.1,-5.446 -14.834,-3.893 -7.931,2.789 -15.408,18.597 -10.906,26.425 1.807,3.105 8.204,5.806 12.171,7.636 l 20.212,9.637 c 6.318,3.165 3.583,-0.112 7.085,0.184 l -6.955,15.303 c -0.729,1.329 -0.057,1.153 -1.248,1.07 -1.768,-1.622 1.047,-2.374 -2.831,-4.205 L -52.814,22.54 c -5.757,-3.055 -10.482,-6.423 -10.955,-14.769 -0.375,-7.486 2.719,-14.672 5.486,-20.286 7.18,-14.69 15.145,-23.341 30.705,-16.424 l 30.656,14.69 c 3.183,0.895 2.479,-1.345 4.533,-0.673 C 8.14,-13.571 3.678,-5.687 2.495,-3.056 0.719,0.999 1.463,0 0,0"
         style="fill:#ffffff;fill-opacity:1;fill-rule:nonzero;stroke:none"
         transform="matrix(1.3333333,0,0,-1.3333333,193.07427,1058.6617)"
         clip-path="url(#clipPath96)" />
      <path
         id="path97"
         d="m 0,0 -21.908,2.07 c 0.399,-3.615 2.75,0 2.158,-6.588 l -3.382,-38.068 c -0.193,-2.553 -0.376,-5.015 -0.663,-7.661 -0.529,-4.91 -2.447,-2.399 -3.279,-4.781 0.416,-0.41 0.111,-0.234 0.767,-0.456 0.64,-0.288 14.969,-1.918 16.104,-1.175 -0.296,2.295 -1.807,0.679 -2.286,3.31 l 1.215,15.168 c 0.624,6.621 1.071,13.672 1.807,20.142 0.736,-0.648 0.223,-0.041 0.767,-0.831 0.025,-0.058 0.144,-0.185 0.144,-0.264 L 8.363,-58.586 c 8.493,11.6 17.465,26.307 25.756,37.283 0,-1.07 -2.582,-34.804 -3.303,-36.308 -0.846,-1.592 -2.046,-0.785 -2.781,-2.712 1.022,-0.854 15.447,-2.024 17.91,-1.845 0.271,3.094 -2.575,0.272 -2.143,5.811 l 3.51,38.9 c 0.162,2.519 0.329,5.278 0.681,7.719 0.656,4.924 2.415,2.413 3.118,4.764 -0.561,0.456 -20.086,2.894 -21.718,2.04 0.536,-2.201 2.863,-1.4 1.135,-4.685 L 11.442,-36.383 -0.063,-9.068 C -1.471,-5.7 -2.991,-3.807 -1.223,-2.08 0.121,-0.722 -0.015,-2.648 0,0"
         style="fill:#ffffff;fill-opacity:1;fill-rule:nonzero;stroke:none"
         transform="matrix(1.3333333,0,0,-1.3333333,473.07227,1252.8271)"
         clip-path="url(#clipPath98)" />
      <path
         id="path99"
         d="m 0,0 c 2.792,-1.454 2.528,-1.712 2.528,-1.712 0,0.025 0.151,-0.189 0.264,-0.247 l -37.613,-9.794 c -13.401,-3.447 -7.971,-1.713 -10.666,1.325 -1.463,-0.535 -2.112,-2.733 -2.814,-3.949 l -6.804,-12.13 c 0,-0.033 0,-0.137 -0.083,-0.2 0,-0.038 -0.039,-0.151 -0.039,-0.151 l 0.122,-0.392 c 1.726,-1.176 0.903,0.936 3.867,0.392 l 34.8,-19.464 c 2.16,-1.304 4.191,-2.35 6.469,-3.645 4.957,-2.734 2.437,-1.735 3.958,-5.558 1.408,0.233 0.999,0 1.806,1.449 0.832,1.559 7.309,12.456 6.862,13.079 -2.511,1.458 -0.994,-2.053 -5.19,0.113 l -12.865,7.334 c -2.952,1.622 -5.814,3.173 -8.803,4.933 -2.127,1.295 -6.591,3.31 -8.277,4.91 12.042,3.47 26.25,6.738 38.813,10.011 13.656,3.565 8.482,2.39 11.035,-0.873 1.062,0.192 0.711,0.192 1.392,1.408 1.638,2.733 7.49,12.944 7.77,14.633 C 23.661,1.376 25.198,-0.217 22.223,0.687 L -12.535,20.23 c -12.739,7.324 -8.237,3.799 -10.253,9.003 -1.734,-0.129 -1.63,-0.856 -2.429,-2.431 -9.868,-18.375 -6.653,-10.819 -2.64,-11.395 z"
         style="fill:#ffffff;fill-opacity:1;fill-rule:nonzero;stroke:none"
         transform="matrix(1.3333333,0,0,-1.3333333,907.51947,1065.7959)"
         clip-path="url(#clipPath100)" />
      <path
         id="path101"
         d="M 0,0 C 11.724,2.471 5.087,-0.902 9.597,-0.593 9.38,1.727 8.644,4.661 8.158,7.068 7.549,10.396 7.452,13.338 5.989,13.944 3.84,12.443 7.005,11.06 1.128,9.891 L -40.994,1.008 c -1.208,-0.217 -2.462,-0.519 -3.646,-0.697 -0.145,-0.047 -1.632,-0.319 -1.737,-0.319 -1.008,-0.505 -0.582,0 -1.008,-1.07 1.906,-2.265 2.641,1.182 3.929,-5.007 l 7.531,-36.501 c 0.406,-1.855 2.495,-9.788 1.895,-11.268 -0.591,-1.462 -1.489,-0.774 -1.664,-2.583 1.232,-0.615 5.375,0.569 7.092,0.961 l 42.821,9.075 c 5.292,1.12 3.389,-1.142 5.915,-1.615 0.647,0.863 0.153,-0.209 0.442,0.983 l -0.521,3.014 c -0.281,1.321 -0.544,2.479 -0.832,3.623 -0.206,1.288 -0.552,2.717 -0.846,4.071 -0.568,3.126 -0.505,2.637 -1.433,2.934 -1.878,-1.359 0.36,-2.407 -3.054,-3.463 -4.524,-1.39 -35.102,-7.42 -36.51,-7.42 l -2.871,15.281 c 1.713,1.007 11.155,2.478 13.946,3.071 16.314,3.269 8.427,0.782 13.146,0 0.847,1.534 -1.304,8.644 -1.807,11.306 -0.513,2.311 -0.384,2.605 -1.463,2.989 -3.719,-3.135 4.214,-1.773 -11.715,-5.204 -4.455,-0.928 -9.843,-2.319 -14.24,-2.935 -0.673,2.567 -2.712,10.906 -2.695,13.417 z"
         style="fill:#ffffff;fill-opacity:1;fill-rule:nonzero;stroke:none"
         transform="matrix(1.3333333,0,0,-1.3333333,630.9544,1255.3011)"
         clip-path="url(#clipPath102)" />
      <path
         id="path103"
         d="m 0,0 c 0.673,2.501 9.062,20.749 10.963,25.761 1.304,3.48 3.838,7.293 3.653,7.885 -1.078,0.432 -2.077,-0.408 -2.876,-0.888 -2.934,-1.59 -17.52,-8.483 -18.193,-10.099 1.458,-1.062 3.72,0.513 3.456,-2.231 -0.239,-1.757 -11.539,-28.242 -12.409,-29.296 l -9.045,16.414 c -2.374,4.408 0.999,3.518 0.063,5.783 -1.262,0.653 -6.492,-2.895 -8.188,-3.774 -1.526,-0.919 -2.742,-1.433 -4.23,-2.327 -2.516,-1.351 -2.854,-0.953 -3.541,-2.367 2.6,-2.143 2.254,1.76 5.573,-4.493 l 10.068,-19.318 c 0.894,-1.721 11.723,-21.621 11.736,-23.158 0.08,-1.678 -3.677,-5.724 3.503,-1.774 1.321,0.766 12.204,5.517 11.586,6.86 -1.015,2.445 -1.734,-2.705 -5.643,4.885 -7.741,14.93 -6.533,7.716 -1.321,21.191 3.118,-0.714 10.787,-4.351 14.216,-5.864 4.4,-1.91 10.261,-3.979 13.922,-6.148 -0.038,-1.91 -2.286,-4.101 0.409,-3.223 l 9.033,4.686 c 1.472,0.794 9.02,4.247 9.717,5.742 -1.128,0.64 -4.622,0.456 -6.382,1.032 -1.863,0.503 -3.606,1.351 -5.212,2.078 C 21.111,-8.734 9.253,-3.367 0,0"
         style="fill:#ffffff;fill-opacity:1;fill-rule:nonzero;stroke:none"
         transform="matrix(1.3333333,0,0,-1.3333333,720.37107,1238.4547)"
         clip-path="url(#clipPath104)" />
      <path
         id="path105"
         d="M 0,0 C 1.19,1.232 1.087,8.522 1.254,11.009 1.424,12.777 2.591,21.094 1.592,22.54 -0.656,22.06 1.534,21.262 -2.136,18.127 L -15.976,8.075 c -3.118,-2.278 -5.893,-4.261 -9.124,-6.612 -2.478,-1.702 -6.812,-5.221 -9.299,-6.429 l -18.528,26.228 c -1.141,1.701 -0.84,3.221 -2.413,3.803 L -56.932,1.312 c 2.391,0.368 0.281,0.974 2.822,2.157 1.471,-0.67 18.248,-24.108 19.415,-26.683 l -19.799,1.296 c -3.862,0.656 -1.117,2.374 -4.076,2.904 -0.752,-1.337 -1.697,-16.809 -1.233,-17.713 2.767,0.16 0.393,2.408 5.262,2.248 2.383,-0.087 4.828,-0.343 7.261,-0.521 4.734,-0.376 9.338,-0.653 14.135,-1.029 4.327,-0.297 26.227,-1.258 28.308,-2.4 1.334,-1.399 0.359,-2.295 2.605,-2.424 l 1.17,18.048 c -2.817,-0.2 -0.778,-1.023 -2.888,-2.111 -1.199,-0.505 -2.968,-0.263 -4.326,-0.112 -12.267,1.015 -11.882,-0.552 -15.193,4.255 -1.463,2.052 -2.718,3.708 -3.974,5.621 0.944,1.463 10.547,7.77 12.585,9.162 2.528,1.743 10.573,8.179 13.353,8.317 C -0.903,1.128 -1.232,0.447 0,0"
         style="fill:#ffffff;fill-opacity:1;fill-rule:nonzero;stroke:none"
         transform="matrix(1.3333333,0,0,-1.3333333,980.43493,892.9964)"
         clip-path="url(#clipPath106)" />
      <path
         id="path107"
         d="M 0,0 20.292,-7.637 C 19.502,-9.188 18.198,-9.97 17.015,-11.106 13.96,-14.111 10.252,-18.062 7.181,-20.549 6.302,-19.524 0.359,-2.149 0,0 m 55.325,-5.134 c -2.207,0.799 -0.818,-1.91 -8.468,0.841 L 23.772,4.062 C 18.398,5.988 13.37,7.828 8.059,9.804 5.309,10.795 3.055,11.539 0.4,12.555 c -5.47,2.078 -1.015,3.453 -3.095,5.748 -2.495,-1.84 -5.004,-4.574 -7.499,-7.028 -1.329,-1.296 -2.521,-2.366 -3.832,-3.486 -2.751,-2.553 -3.261,-2.36 -2.973,-4.12 4.438,-0.51 4.355,0.376 5.989,-4.477 1.847,-5.212 16.038,-48.238 15.958,-49.758 0,-0.799 -0.262,-1.024 -0.447,-1.806 -0.208,-0.514 -1.016,-1.696 0.527,-1.529 0.258,0 0.096,-0.038 0.448,0.167 0.095,0.033 12.425,11.676 12.963,13.074 h -4.287 c -1.312,1.696 -4.062,8.827 -4.246,11.539 l 14.027,13.514 c 1.591,1.496 2.766,3.309 4.564,4.396 0.728,0.105 9.124,-2.9 11.786,-4.86 0.168,-2.592 -0.768,-2.287 -0.183,-3.909 1.704,0.054 6.077,5.292 8.108,7.139 1.254,1.216 7.331,6.244 7.117,7.707"
         style="fill:#ffffff;fill-opacity:1;fill-rule:nonzero;stroke:none"
         transform="matrix(1.3333333,0,0,-1.3333333,800.74867,1166.1943)"
         clip-path="url(#clipPath108)" />
      <path
         id="path109"
         d="M 0,0 C 2.805,-0.326 0.502,2.713 6.755,0.785 L 42.683,-9.802 c 1.511,-0.447 9.588,-2.527 10.411,-3.309 1.383,-1.513 -0.314,-1.831 1.597,-2.985 1.233,0.737 0.234,-0.238 0.912,0.937 l 4.55,16.384 C 53.947,1.024 64.814,-2.95 45.449,2.713 40.73,4.062 36.062,5.396 31.376,6.854 26.745,8.229 22.061,9.459 17.342,10.908 0.055,16.113 9.107,14.482 5.412,17.296 4.125,16.561 4.351,15.792 3.532,13.02 2.742,10.308 0,1.576 0,0"
         style="fill:#ffffff;fill-opacity:1;fill-rule:nonzero;stroke:none"
         transform="matrix(1.3333333,0,0,-1.3333333,885.38933,996.41307)"
         clip-path="url(#clipPath110)" />
    </g>
  </g>
</svg>
